G04 DipTrace 3.2.0.1*
G04 BottomMask.gbr*
%MOIN*%
G04 #@! TF.FileFunction,Soldermask,Bot*
G04 #@! TF.Part,Single*
%AMOUTLINE4*
4,1,16,
-0.012179,0.045296,
-0.031431,0.040935,
-0.047241,0.028371,
-0.056033,0.010191,
-0.056067,-0.010003,
-0.047336,-0.028213,
-0.031568,-0.040831,
-0.012331,-0.045255,
0.012179,-0.045296,
0.031431,-0.040935,
0.047241,-0.028371,
0.056033,-0.010191,
0.056067,0.010003,
0.047336,0.028213,
0.031568,0.040831,
0.012331,0.045255,
-0.012179,0.045296,
0*%
%AMOUTLINE10*
4,1,5,
-0.024606,0.033465,
-0.024606,-0.033465,
0.024606,-0.033465,
0.024606,0.019347,
0.010489,0.033465,
-0.024606,0.033465,
0*%
%ADD51C,0.059055*%
%ADD52C,0.03937*%
%ADD54R,0.029528X0.023622*%
%ADD56R,0.021654X0.027559*%
%ADD58R,0.033465X0.061024*%
%ADD60R,0.03937X0.019685*%
%ADD79R,0.051181X0.047244*%
%ADD80R,0.055118X0.055118*%
%ADD97R,0.047244X0.051181*%
%ADD105OUTLINE4*%
%ADD111OUTLINE10*%
%FSLAX26Y26*%
G04*
G70*
G90*
G75*
G01*
G04 BotMask*
%LPD*%
D97*
X1203427Y496264D3*
Y429335D3*
X1129807Y496075D3*
Y429146D3*
D79*
X1227780Y-393136D3*
X1160850D3*
X1158731Y-580743D3*
X1225660D3*
D51*
X-1354094Y414291D3*
X1354094D3*
X-1354094Y-414291D3*
X1354094D3*
D97*
X1134127Y168075D3*
Y101146D3*
X1227026Y-188705D3*
Y-255634D3*
X1159285Y-189419D3*
Y-256348D3*
D79*
X1226558Y-326266D3*
X1159629D3*
D80*
X-944900Y545625D3*
X-771672D3*
D105*
X687337Y-507873D3*
X689039Y507873D3*
D52*
X53112Y-549186D3*
X171222D3*
D60*
X1234252Y319488D3*
Y293898D3*
Y268307D3*
X1143701D3*
Y293898D3*
Y319488D3*
D58*
X1188976Y293898D3*
D56*
X1338583Y40354D3*
X1364173D3*
Y-40354D3*
X1338583D3*
X1312992Y40354D3*
X1389764D3*
Y-40354D3*
X1312992D3*
D111*
X1188976Y-484449D3*
D54*
X1234252D3*
X1143701D3*
X1234252Y-452953D3*
Y-515945D3*
X1143701D3*
Y-452953D3*
M02*
