G04 DipTrace 3.2.0.1*
G04 Bottom.gbr*
%MOIN*%
G04 #@! TF.FileFunction,Copper,L2,Bot*
G04 #@! TF.Part,Single*
%AMOUTLINE3*
4,1,16,
-0.011741,0.041358,
-0.029685,0.037294,
-0.044088,0.025848,
-0.052097,0.009286,
-0.052129,-0.009112,
-0.044175,-0.025701,
-0.02981,-0.037196,
-0.011881,-0.041319,
0.011741,-0.041358,
0.029685,-0.037294,
0.044088,-0.025848,
0.052097,-0.009286,
0.052129,0.009112,
0.044175,0.025701,
0.02981,0.037196,
0.011881,0.041319,
-0.011741,0.041358,
0*%
%AMOUTLINE9*
4,1,5,
-0.020669,0.029528,
-0.020669,-0.029528,
0.020669,-0.029528,
0.020669,0.017717,
0.008858,0.029528,
-0.020669,0.029528,
0*%
G04 #@! TA.AperFunction,CopperBalancing*
%ADD10C,0.009843*%
%ADD15C,0.011811*%
G04 #@! TA.AperFunction,Conductor*
%ADD16C,0.027559*%
%ADD17C,0.015748*%
G04 #@! TA.AperFunction,ViaPad*
%ADD18C,0.023622*%
G04 #@! TA.AperFunction,Conductor*
%ADD19C,0.019685*%
%ADD21C,0.007874*%
%ADD22C,0.005906*%
%ADD24R,0.03937X0.043307*%
%ADD25R,0.043307X0.03937*%
G04 #@! TA.AperFunction,ComponentPad*
%ADD33R,0.047244X0.047244*%
%ADD45R,0.031496X0.011811*%
%ADD46R,0.025591X0.05315*%
%ADD47R,0.01378X0.019685*%
%ADD49R,0.021654X0.015748*%
G04 #@! TA.AperFunction,ViaPad*
%ADD50C,0.031496*%
G04 #@! TA.AperFunction,ComponentPad*
%ADD104OUTLINE3*%
%ADD110OUTLINE9*%
%FSLAX26Y26*%
G04*
G70*
G90*
G75*
G01*
G04 Bottom*
%LPD*%
X-694618Y-277623D2*
D15*
X-726623D1*
X-888059Y-116188D1*
X-415990Y-260925D2*
X-211592D1*
X-159491Y-208824D1*
X-416062Y-294970D2*
X-187115D1*
X-159491Y-267345D1*
Y-208824D2*
D16*
X217707D1*
X328386D1*
X498205D1*
X533759Y-173270D1*
X575211Y-131818D1*
X623004Y-84025D1*
X707654Y625D1*
X-159491Y-208824D2*
D15*
Y-267345D1*
X-415990Y-260925D2*
Y-294898D1*
X-416062Y-294970D1*
X-633000Y53010D2*
Y328358D1*
X-527604Y433755D1*
X1338198Y75717D2*
Y40739D1*
X1338583Y40354D1*
X1312915Y-76350D2*
Y-40432D1*
X1312992Y-40354D1*
X1234252Y293898D2*
X1268140D1*
X1273068Y288970D1*
Y281741D1*
Y272967D1*
X1268408Y268307D1*
X1234252D1*
X1272385Y281741D2*
X1273068D1*
X622155Y-83176D2*
D16*
X623004Y-84025D1*
X574362Y-130969D2*
X575211Y-131818D1*
X533396Y-172909D2*
X533759Y-173270D1*
X470004Y-12916D2*
D15*
Y-60041D1*
Y-110022D1*
Y-60041D2*
X599020D1*
X622155Y-83176D1*
X564253Y216996D2*
X625659D1*
X628514Y219852D1*
X692776D1*
X707206Y-164790D2*
X770507D1*
X835953D1*
X837026Y-163717D1*
X707206Y-164790D2*
Y-194831D1*
X727592Y-215217D1*
Y-259205D1*
X729738Y-261350D1*
X625667Y-264570D2*
X677165D1*
X679311Y-262424D1*
X728664D1*
X729738Y-261350D1*
X812350Y-49990D2*
X865995D1*
X868140Y-47844D1*
X917493D1*
X812350Y-49990D2*
Y-95052D1*
X834881Y-117583D1*
Y-161571D1*
X837026Y-163717D1*
X-1212777Y543068D2*
X-1177281D1*
X-1176858Y542646D1*
X-1140802D1*
X-1140545Y542903D1*
X-1105442D1*
X-1104837Y542298D1*
X-546370Y-182500D2*
Y-212530D1*
Y-249885D1*
X-546382Y-249896D1*
X-520463Y-229442D2*
Y-263357D1*
X-519252Y-264568D1*
X-528067D1*
X-546382Y-282883D1*
X328386Y-208490D2*
D16*
Y-208824D1*
X282769Y-84944D2*
D15*
Y-130562D1*
X303676Y-151469D1*
Y-183780D1*
X328386Y-208490D1*
Y-229398D1*
X362598Y-263610D1*
Y-264681D1*
X420352Y-322434D1*
X410018D1*
X408215Y-320631D1*
X285743Y97126D2*
X413118D1*
X413440Y97448D1*
X537462Y376927D2*
X503249D1*
X469037Y342714D1*
X451930D1*
X410115Y300899D1*
X358797Y249580D1*
Y232474D1*
X313180Y186857D1*
X1262466Y-484724D2*
X1234252D1*
Y-484449D1*
X1110341Y-399982D2*
X1154005D1*
X1160850Y-393136D1*
X1225660Y-580743D2*
X1235037D1*
X1263286Y-552493D1*
X1115642Y-515936D2*
X1143692D1*
X1143701Y-515945D1*
X217707Y-285301D2*
Y-208824D1*
X202064Y-331870D2*
Y-330547D1*
X217449Y-315163D1*
Y-285559D1*
X217707Y-285301D1*
X-1046606Y-156293D2*
Y-402795D1*
X-1071583Y-427772D1*
X-366479Y-537298D2*
X-631579D1*
X-929753Y-239123D1*
Y-18940D1*
X-807867Y102946D1*
Y187493D1*
X-819882Y199508D1*
X-884648D1*
X-886839Y197318D1*
X-336311Y-397601D2*
D19*
X-526521D1*
X-611070Y-313052D1*
Y-37155D1*
X-738764Y90539D1*
X-611070Y-37155D2*
X-234486D1*
X-189008Y-82633D1*
X-105921D1*
X-53993Y-30705D1*
Y39399D1*
X72434Y165827D1*
X155730D1*
X207510Y217608D1*
Y418605D1*
X-738764Y90539D2*
D15*
Y361262D1*
Y460934D1*
X-672647Y527051D1*
Y569031D1*
X-671109Y570570D1*
X-738643Y361262D2*
X-738764D1*
X207510Y418605D2*
D17*
X1119266D1*
X1129807Y429146D1*
X1338583Y-40354D2*
D15*
Y-61891D1*
X1354639Y-77948D1*
X1391113Y78234D2*
X1389764D1*
Y40354D1*
X1364173D2*
Y71660D1*
X1369987Y77474D1*
X1390353D1*
X1364173Y40354D2*
D21*
Y12619D1*
X1197051D1*
X1176058Y33613D1*
Y102564D1*
Y175798D1*
X1214293Y214033D1*
X1297642D1*
X1310722Y227113D1*
Y283896D1*
X1230722Y365404D2*
D15*
X1137482D1*
X1128257Y374629D1*
Y427596D1*
X1129807Y429146D1*
X1203238D1*
X1203427Y429335D1*
X1312992Y40354D2*
X1298824D1*
X1291601Y33131D1*
X1203417D1*
X1197308Y39240D1*
Y155348D1*
X1226999Y185038D1*
X1308273D1*
X1343773Y220538D1*
Y303598D1*
X1327764Y319608D1*
X1276911D1*
X1234371D1*
X1234252Y319488D1*
X1276911Y319608D2*
Y385005D1*
X1232581Y429335D1*
X1203427D1*
X58022Y-382133D2*
D18*
X893029D1*
X958613Y-316549D1*
X1018814Y-256348D1*
X1159285D1*
D15*
X1226312D1*
X1227026Y-255634D1*
X1176058Y102564D2*
D21*
X1135546D1*
D15*
X1134127Y101146D1*
X1159285Y-256348D2*
Y-325923D1*
X1159629Y-326266D1*
X58022Y-382133D2*
D19*
Y-341333D1*
D15*
X56930Y-340241D1*
X58022Y-382133D2*
D19*
X13446D1*
Y-381815D1*
X1158731Y-580743D2*
D15*
X1039581D1*
X1009609Y-550770D1*
Y-367545D1*
X958613Y-316549D1*
X1143701Y-484449D2*
X1095531D1*
X1082962Y-497018D1*
Y-581172D1*
X1158302D1*
X1158731Y-580743D1*
X-335609Y-362201D2*
D19*
Y-396899D1*
D15*
X-336311Y-397601D1*
X-1043566Y100669D2*
Y-71160D1*
X-1014594Y-100131D1*
Y-416007D1*
X-1002088Y-428513D1*
X-886719Y119776D2*
X-978923Y27572D1*
Y-384420D1*
X-934912Y-428430D1*
X-843021Y158517D2*
Y117577D1*
X-954938Y5660D1*
Y-337513D1*
X-862783Y-429668D1*
X-684281Y-412866D2*
D18*
X-603272Y-493875D1*
X-330144D1*
D19*
X-330510Y-568262D1*
X118135Y255948D2*
D15*
Y414428D1*
X261930Y558223D1*
Y576303D1*
X117781Y200285D2*
X134991D1*
X151416Y216710D1*
Y411976D1*
X243114Y503675D1*
X340845D1*
X412587Y575416D1*
X-567083Y269990D2*
D19*
X-426353D1*
X-130916Y-25448D1*
X1364173Y-40354D2*
D22*
Y-24711D1*
X1359311Y-19849D1*
X1291333D1*
X1271497Y-39685D1*
X1198507D1*
X1120224D1*
X1028146Y52394D1*
Y300482D1*
X1048175Y320510D1*
X1142678D1*
X1143701Y319488D1*
X1198507Y-39685D2*
Y-160185D1*
X1227026Y-188705D1*
X1028146Y52394D2*
X146302D1*
X128172Y70524D1*
X1234252Y-515945D2*
D15*
X1280495D1*
X1296340Y-500100D1*
Y-464121D1*
X1282066Y-449846D1*
Y-203965D1*
X1274798Y-196697D1*
X1235018D1*
X1227026Y-188705D1*
X1389764Y-40354D2*
D22*
Y-13448D1*
X1382140Y-5824D1*
X1272642D1*
X1261344Y-17122D1*
X1179144D1*
Y-14865D1*
X1160752D1*
X1045213Y100675D1*
Y287018D1*
X1054329Y296135D1*
X1141463D1*
X1143701Y293898D1*
X1179144Y-14659D2*
Y-14865D1*
X1178556Y-62328D2*
Y-150988D1*
X1160907Y-168638D1*
Y-189419D1*
X1159285D1*
X1178556Y-62328D2*
X1111318D1*
X1013567Y35423D1*
X128765D1*
X128156Y36031D1*
X1143701Y-452953D2*
D15*
X1078579D1*
X1060089Y-434463D1*
Y-368941D1*
X1080231Y-348799D1*
X1110512D1*
X1134127Y168075D2*
D21*
X1132808D1*
Y268307D1*
X1143701D1*
X1107214D1*
Y268638D1*
X126572Y130303D2*
X819690D1*
X1049182Y359795D1*
X1099832D1*
X1234252Y-452953D2*
D15*
Y-362689D1*
Y-333961D1*
X1226558Y-326266D1*
X1234252Y-362689D2*
Y-386664D1*
X1227780Y-393136D1*
D18*
X261930Y576303D3*
X412587Y575416D3*
X-671109Y570570D3*
X1199034Y559273D3*
X1127211Y558386D3*
X1164453D3*
X-1212777Y543068D3*
X-1140545Y542903D3*
X-1176858Y542646D3*
X-1104837Y542298D3*
X-527604Y433755D3*
X207510Y418605D3*
X-460753Y392495D3*
X-486068Y388497D3*
X303703Y386012D3*
X537462Y376927D3*
X1230722Y365404D3*
X-460087Y363182D3*
X281180Y361987D3*
X-738643Y361262D3*
X1099832Y359795D3*
X469037Y342714D3*
X256155Y334959D3*
X410115Y300899D3*
X1310722Y283896D3*
X1272385Y281741D3*
X1107214Y268638D3*
X-567083Y269990D3*
X118135Y255948D3*
X358797Y249580D3*
X628514Y219852D3*
X692776D3*
X564253Y216996D3*
X-614222Y202682D3*
X117781Y200285D3*
X-886839Y197318D3*
X313180Y186857D3*
X-613135Y169499D3*
X-843021Y158517D3*
X-612235Y134209D3*
X126572Y130303D3*
X-483547Y125005D3*
X-886719Y119776D3*
X-1043566Y100669D3*
X413440Y97448D3*
X285743Y97126D3*
D50*
X-738764Y90539D3*
D18*
X1391113Y78234D3*
X1338198Y75717D3*
X128172Y70524D3*
X-1226021Y69491D3*
X-633000Y53010D3*
X128156Y36031D3*
X-1226021Y30652D3*
D50*
X707654Y625D3*
D18*
X-1227487Y-11850D3*
X470004Y-12916D3*
X1179144Y-14659D3*
X-1011470Y-16923D3*
X-130916Y-25448D3*
X132345Y-44828D3*
X868140Y-47844D3*
X917493D3*
X-1227972Y-49479D3*
X812350Y-49990D3*
X-1011470Y-56031D3*
X156912Y-59434D3*
X470004Y-60041D3*
X1178556Y-62328D3*
X1312915Y-76350D3*
X1354639Y-77948D3*
X132877Y-78815D3*
X622155Y-83176D3*
X282769Y-84944D3*
X158152Y-95421D3*
X470004Y-110022D3*
X132937Y-111799D3*
X-888059Y-116188D3*
X-466789Y-117433D3*
X574362Y-130969D3*
X-792087Y-139403D3*
X-728220D3*
X-698491D3*
X-759052Y-139954D3*
D3*
X1110341Y-399982D3*
X-449270Y-150466D3*
X303676Y-151469D3*
X-411732Y-152469D3*
X-1046606Y-156293D3*
X837026Y-163717D3*
X707206Y-164790D3*
X770507D3*
X533396Y-172909D3*
X-546370Y-182500D3*
X-1081743Y-196942D3*
X328386Y-208490D3*
X-159491Y-208824D3*
X-546370Y-212530D3*
X-1082198Y-228339D3*
X-520463Y-229442D3*
X-546382Y-249896D3*
X-415990Y-260925D3*
X729738Y-261350D3*
X679311Y-262424D3*
X362598Y-263610D3*
X-519252Y-264568D3*
X625667Y-264570D3*
X-159491Y-267345D3*
X-694618Y-277623D3*
X-546382Y-282883D3*
X-416062Y-294970D3*
X-920606Y-304770D3*
X408215Y-320631D3*
X-899769Y-328501D3*
X202064Y-331870D3*
X1262466Y-484724D3*
D50*
X58022Y-382133D3*
X-336311Y-397601D3*
X-684281Y-412866D3*
D18*
X1093602Y-418264D3*
X-1071583Y-427772D3*
X-1002088Y-428513D3*
X-934912Y-428430D3*
X-862783Y-429668D3*
X1115642Y-515936D3*
X217707Y-285301D3*
D50*
X-330144Y-493875D3*
D18*
X-51127Y-450045D3*
X-366479Y-537298D3*
X-330510Y-568262D3*
X877114Y-568457D3*
X925079D3*
X427440Y-569123D3*
X466744Y-569789D3*
X-930906Y-570748D3*
X-1072298Y-571125D3*
X-863594D3*
X-1153524Y-572252D3*
X-1000098D3*
X-1223152Y-572412D3*
X1110512Y-348799D3*
X1263286Y-552493D3*
X13446Y-381815D3*
X56930Y-340241D3*
X-335609Y-362201D3*
X-1264455Y570997D2*
D15*
X-1016895D1*
X-639924D2*
X-514280D1*
X443437D2*
X1264455D1*
X-1269185Y559318D2*
X-1005199D1*
X-710144D2*
X-700096D1*
X-642115D2*
X-511651D1*
X439077D2*
X646753D1*
X731331D2*
X1269185D1*
X-1273937Y547638D2*
X-993526D1*
X-721818D2*
X-697928D1*
X-647375D2*
X-509021D1*
X425097D2*
X632058D1*
X745933D2*
X1273937D1*
X-1278665Y535958D2*
X-987898D1*
X-901912D2*
X-814654D1*
X-728669D2*
X-698988D1*
X-647375D2*
X-506391D1*
X408373D2*
X624654D1*
X753430D2*
X1164362D1*
X1242480D2*
X1278665D1*
X-1287201Y524278D2*
X-987898D1*
X-901912D2*
X-814654D1*
X-728669D2*
X-710685D1*
X-647537D2*
X-503761D1*
X396701D2*
X619025D1*
X759013D2*
X1090751D1*
X1242480D2*
X1287201D1*
X-1296428Y512598D2*
X-987898D1*
X-901912D2*
X-814654D1*
X-728669D2*
X-722367D1*
X-652197D2*
X-501131D1*
X385028D2*
X617571D1*
X760535D2*
X1090751D1*
X1242480D2*
X1296428D1*
X-1306186Y500919D2*
X-734030D1*
X-663524D2*
X-498501D1*
X373356D2*
X617549D1*
X760512D2*
X1090751D1*
X1242480D2*
X1306186D1*
X-1322657Y489239D2*
X-745726D1*
X-675196D2*
X-495871D1*
X361660D2*
X620131D1*
X757997D2*
X1090751D1*
X1242480D2*
X1322657D1*
X-1325310Y477559D2*
X-757375D1*
X-686892D2*
X-493241D1*
X252247D2*
X625714D1*
X752346D2*
X1090751D1*
X1242480D2*
X1325310D1*
X-1307039Y465879D2*
X-763534D1*
X-698564D2*
X-490612D1*
X240573D2*
X634942D1*
X743234D2*
X1090751D1*
X1242480D2*
X1307039D1*
X-1296589Y454199D2*
X-764042D1*
X-710238D2*
X-484660D1*
X228900D2*
X650352D1*
X727824D2*
X1090751D1*
X1242480D2*
X1296589D1*
X-1289923Y442520D2*
X-764042D1*
X-713490D2*
X-451281D1*
X1254660D2*
X1289923D1*
X-1285886Y430840D2*
X-764042D1*
X-713490D2*
X-452549D1*
X1266333D2*
X1285886D1*
X-1284063Y419160D2*
X-764042D1*
X-713490D2*
X-452549D1*
X1278005D2*
X1284051D1*
X-1284224Y407480D2*
X-764042D1*
X-713490D2*
X-452526D1*
X-1286416Y395801D2*
X-764042D1*
X-713490D2*
X-452526D1*
X-1290823Y384121D2*
X-764042D1*
X-713490D2*
X-452503D1*
X236720D2*
X1081085D1*
X-1298020Y372441D2*
X-767664D1*
X-709614D2*
X-452503D1*
X236720D2*
X1029365D1*
X-1309323Y360761D2*
X-769808D1*
X-707469D2*
X-452480D1*
X236720D2*
X1017669D1*
X-1386602Y349081D2*
X-1377927D1*
X-1330269D2*
X-767248D1*
X-710052D2*
X-452480D1*
X236720D2*
X1005997D1*
X-1386602Y337402D2*
X-764042D1*
X-713490D2*
X-452457D1*
X236720D2*
X994324D1*
X-1386602Y325722D2*
X-764042D1*
X-713490D2*
X-452433D1*
X236720D2*
X982629D1*
X-1350131Y314042D2*
X-764042D1*
X-713490D2*
X-452433D1*
X236720D2*
X970957D1*
X-1297189Y302362D2*
X-764042D1*
X-713490D2*
X-452411D1*
X236720D2*
X959283D1*
X-1283879Y290682D2*
X-764042D1*
X-713490D2*
X-589991D1*
X236720D2*
X947588D1*
X1269378D2*
X1280327D1*
X-1279843Y279003D2*
X-764042D1*
X-713490D2*
X-596888D1*
X236720D2*
X935915D1*
X1269378D2*
X1279934D1*
X-1279335Y267323D2*
X-764042D1*
X-713490D2*
X-598134D1*
X236720D2*
X924243D1*
X989189D2*
X1005812D1*
X1269378D2*
X1284525D1*
X-1279335Y255643D2*
X-764042D1*
X-713490D2*
X-594604D1*
X236720D2*
X912547D1*
X977493D2*
X1005812D1*
X1269378D2*
X1287408D1*
X-1279335Y243963D2*
X-764042D1*
X-713490D2*
X-583185D1*
X236720D2*
X900874D1*
X965822D2*
X1005812D1*
X1156113D2*
X1287408D1*
X-1279335Y232283D2*
X-764042D1*
X-713490D2*
X-452341D1*
X236720D2*
X889202D1*
X954148D2*
X1005812D1*
X1156113D2*
X1200602D1*
X-1279335Y220604D2*
X-906928D1*
X-807055D2*
X-764042D1*
X-713490D2*
X-452341D1*
X236720D2*
X877529D1*
X942453D2*
X1005812D1*
X1156113D2*
X1188399D1*
X-1279335Y208924D2*
X-915693D1*
X-794045D2*
X-764042D1*
X-713490D2*
X-452319D1*
X235337D2*
X865833D1*
X930780D2*
X1005812D1*
X1156113D2*
X1176703D1*
X-1279335Y197244D2*
X-918024D1*
X-784656D2*
X-764042D1*
X-713490D2*
X-452319D1*
X227978D2*
X854161D1*
X919108D2*
X1005812D1*
X-1279335Y185564D2*
X-915625D1*
X-782602D2*
X-764042D1*
X-713490D2*
X-452295D1*
X216282D2*
X842488D1*
X907434D2*
X1005812D1*
X-1279335Y173885D2*
X-906743D1*
X-782602D2*
X-764042D1*
X-713490D2*
X-452295D1*
X204610D2*
X830793D1*
X895739D2*
X1005812D1*
X-1279335Y162205D2*
X-873986D1*
X-782602D2*
X-764042D1*
X-713490D2*
X-452272D1*
X192937D2*
X819119D1*
X884067D2*
X1005812D1*
X-1279335Y150525D2*
X-873109D1*
X-782602D2*
X-764042D1*
X-713490D2*
X-452249D1*
X872394D2*
X1005812D1*
X-1279335Y138845D2*
X-911056D1*
X-782602D2*
X-764042D1*
X-713490D2*
X-452249D1*
X860698D2*
X1005812D1*
X-1279335Y127165D2*
X-1058810D1*
X-1028304D2*
X-916986D1*
X-782602D2*
X-764042D1*
X-713490D2*
X-452226D1*
X89083D2*
X95556D1*
X849026D2*
X1005812D1*
X-1279335Y115486D2*
X-1070828D1*
X-1016308D2*
X-926259D1*
X-782602D2*
X-764042D1*
X-713490D2*
X-452226D1*
X89106D2*
X99316D1*
X837353D2*
X1005812D1*
X-1279335Y103806D2*
X-1074589D1*
X-1012549D2*
X-937954D1*
X-782602D2*
X-771193D1*
X-706339D2*
X-452203D1*
X89130D2*
X111335D1*
X141818D2*
X1005812D1*
X-1279335Y92126D2*
X-1073504D1*
X-1013633D2*
X-949627D1*
X-785163D2*
X-773846D1*
X-699533D2*
X-452203D1*
X89130D2*
X106168D1*
X150168D2*
X1005812D1*
X-1279335Y80446D2*
X-1068845D1*
X-1018293D2*
X-961299D1*
X-795106D2*
X-772346D1*
X-687837D2*
X-452180D1*
X89152D2*
X98671D1*
X157665D2*
X1005812D1*
X-1279335Y68766D2*
X-1068845D1*
X-1018293D2*
X-972995D1*
X-806802D2*
X-765979D1*
X-676165D2*
X-452180D1*
X89176D2*
X97033D1*
X1298883D2*
X1338898D1*
X-1279335Y57087D2*
X-1068845D1*
X-1018293D2*
X-984668D1*
X-818474D2*
X-746140D1*
X-664492D2*
X-452157D1*
X89198D2*
X100169D1*
X-1279335Y45407D2*
X-1068845D1*
X-1018293D2*
X-996341D1*
X-830147D2*
X-734445D1*
X-652797D2*
X-452157D1*
X89222D2*
X98486D1*
X-1279335Y33727D2*
X-1068845D1*
X-1018293D2*
X-1003399D1*
X-841843D2*
X-722773D1*
X-641125D2*
X-452134D1*
X89244D2*
X97055D1*
X-1279335Y22047D2*
X-1068845D1*
X-1018293D2*
X-1004207D1*
X-853514D2*
X-711100D1*
X-629451D2*
X-452134D1*
X89268D2*
X100424D1*
X-1279335Y10367D2*
X-1068845D1*
X-1018293D2*
X-1004207D1*
X-865188D2*
X-699427D1*
X-617778D2*
X-452110D1*
X89291D2*
X111450D1*
X144862D2*
X1007542D1*
X-1279335Y-1312D2*
X-1068845D1*
X-1018293D2*
X-1004207D1*
X-876860D2*
X-687731D1*
X-606083D2*
X-452110D1*
X89314D2*
X1019215D1*
X-1279335Y-12992D2*
X-1068845D1*
X-1018293D2*
X-1004207D1*
X-888555D2*
X-676059D1*
X89314D2*
X1030911D1*
X-1279335Y-24672D2*
X-1068845D1*
X-1018293D2*
X-1004207D1*
X-900228D2*
X-664386D1*
X89337D2*
X1042584D1*
X-1279335Y-36352D2*
X-1068845D1*
X-1018293D2*
X-1004207D1*
X-904472D2*
X-652690D1*
X89360D2*
X1054256D1*
X-1279335Y-48031D2*
X-1068845D1*
X-1018293D2*
X-1004207D1*
X-904472D2*
X-641018D1*
X89383D2*
X1065951D1*
X-1279335Y-59711D2*
X-1068845D1*
X-1018293D2*
X-1004207D1*
X-904472D2*
X-640280D1*
X89407D2*
X1077625D1*
X-1279335Y-71391D2*
X-1068845D1*
X-904472D2*
X-640280D1*
X-581861D2*
X-452018D1*
X89429D2*
X1089297D1*
X-1279335Y-83071D2*
X-1065684D1*
X-904472D2*
X-640280D1*
X-581861D2*
X-452018D1*
X89453D2*
X1106045D1*
X-1279335Y-94751D2*
X-1055234D1*
X-904472D2*
X-640280D1*
X-581861D2*
X-451996D1*
X89475D2*
X1156241D1*
X-1279335Y-106430D2*
X-1043562D1*
X-904472D2*
X-640280D1*
X-581861D2*
X-451996D1*
X89499D2*
X1156241D1*
X-1279335Y-118110D2*
X-1039870D1*
X-904472D2*
X-640280D1*
X-581861D2*
X-451972D1*
X89499D2*
X1156241D1*
X-1279335Y-129790D2*
X-1061854D1*
X-904472D2*
X-640280D1*
X-581861D2*
X-449480D1*
X87215D2*
X1156241D1*
X-1279335Y-141470D2*
X-1073874D1*
X-904472D2*
X-640280D1*
X-581861D2*
X1156241D1*
X-1279335Y-153150D2*
X-1077634D1*
X-904472D2*
X-640280D1*
X-581861D2*
X1120232D1*
X-1279335Y-164829D2*
X-1076550D1*
X-904472D2*
X-640280D1*
X-581861D2*
X1120232D1*
X-1279335Y-176509D2*
X-1071890D1*
X-904472D2*
X-640280D1*
X-581861D2*
X1120232D1*
X-1279335Y-188189D2*
X-1071890D1*
X-904472D2*
X-640280D1*
X-581861D2*
X1120232D1*
X-1279335Y-199869D2*
X-1071890D1*
X-904472D2*
X-640280D1*
X-581861D2*
X1120232D1*
X-1279335Y-211549D2*
X-1071890D1*
X-904472D2*
X-640280D1*
X-581861D2*
X1120232D1*
X-1279335Y-223228D2*
X-1071890D1*
X-904472D2*
X-640280D1*
X-581861D2*
X1120232D1*
X-1279335Y-234908D2*
X-1071890D1*
X-898706D2*
X-640280D1*
X-581861D2*
X996655D1*
X-1279335Y-246588D2*
X-1071890D1*
X-887033D2*
X-640280D1*
X-581861D2*
X984958D1*
X-1279335Y-258268D2*
X-1071890D1*
X-875361D2*
X-640280D1*
X-581861D2*
X973286D1*
X-1279335Y-269948D2*
X-1071890D1*
X-863665D2*
X-640280D1*
X-581861D2*
X961613D1*
X-1279335Y-281627D2*
X-1071890D1*
X-929664D2*
X-922497D1*
X-851992D2*
X-640280D1*
X-581861D2*
X949917D1*
X-1279335Y-293307D2*
X-1071890D1*
X-929664D2*
X-910825D1*
X-840320D2*
X-640280D1*
X-581861D2*
X938245D1*
X-1279335Y-304987D2*
X-1071890D1*
X-929664D2*
X-899154D1*
X-828625D2*
X-640280D1*
X-578308D2*
X926572D1*
X-1279335Y-316667D2*
X-1071890D1*
X-929664D2*
X-887458D1*
X-816951D2*
X-640049D1*
X-566636D2*
X37193D1*
X76672D2*
X914877D1*
X-1279335Y-328346D2*
X-1071890D1*
X-928856D2*
X-875785D1*
X-805278D2*
X-635735D1*
X-554941D2*
X28219D1*
X85646D2*
X903205D1*
X-1279335Y-340026D2*
X-1071890D1*
X-917160D2*
X-864113D1*
X-793583D2*
X-624916D1*
X-543268D2*
X-357000D1*
X-314222D2*
X25751D1*
X88114D2*
X891531D1*
X-1279335Y-351706D2*
X-1071890D1*
X-905488D2*
X-852417D1*
X-781911D2*
X-613244D1*
X-531596D2*
X-364890D1*
X-306332D2*
X28035D1*
X87238D2*
X879860D1*
X-1280811Y-363386D2*
X-1071890D1*
X-893815D2*
X-840744D1*
X-770238D2*
X-601571D1*
X-519923D2*
X-366757D1*
X-304441D2*
X-11412D1*
X955394D2*
X970194D1*
X-1288217Y-375066D2*
X-1071890D1*
X-882119D2*
X-829072D1*
X-758566D2*
X-589875D1*
X-306402D2*
X-16971D1*
X943698D2*
X981867D1*
X-1289623Y-386745D2*
X-1071890D1*
X-870448D2*
X-817375D1*
X-746870D2*
X-707133D1*
X-661424D2*
X-578202D1*
X-302987D2*
X-17318D1*
X932026D2*
X984336D1*
X1085362D2*
X1119816D1*
X-1285724Y-398425D2*
X-1078995D1*
X-858774D2*
X-805703D1*
X-735197D2*
X-716175D1*
X-652382D2*
X-566530D1*
X-301211D2*
X-12727D1*
X920353D2*
X984336D1*
X1085362D2*
X1119816D1*
X-1284017Y-410105D2*
X-1097010D1*
X-838866D2*
X-794030D1*
X-643430D2*
X-554835D1*
X-303587D2*
X2291D1*
X905059D2*
X984336D1*
X1085362D2*
X1119816D1*
X-1284294Y-421785D2*
X-1102155D1*
X-832661D2*
X-782358D1*
X-631759D2*
X-541870D1*
X-311315D2*
X984336D1*
X1085362D2*
X1119816D1*
X-1286601Y-433465D2*
X-1102224D1*
X-1040946D2*
X-1032858D1*
X-904150D2*
X-894240D1*
X-831853D2*
X-770663D1*
X-620085D2*
X984336D1*
X-1291169Y-445144D2*
X-1097219D1*
X-1045951D2*
X-1028244D1*
X-975938D2*
X-961000D1*
X-908810D2*
X-889672D1*
X-835913D2*
X-758990D1*
X-608390D2*
X984336D1*
X-1298551Y-456824D2*
X-1080240D1*
X-1062930D2*
X-1013203D1*
X-990979D2*
X-945774D1*
X-924035D2*
X-876707D1*
X-848856D2*
X-747318D1*
X-596718D2*
X644538D1*
X730131D2*
X984336D1*
X-1310177Y-468504D2*
X-735622D1*
X-306425D2*
X629913D1*
X744688D2*
X984336D1*
X-1332345Y-480184D2*
X-723949D1*
X-297912D2*
X622761D1*
X751908D2*
X984336D1*
X1264441D2*
X1271052D1*
X-1318966Y-491864D2*
X-712276D1*
X-295075D2*
X617156D1*
X757467D2*
X984336D1*
X-1303602Y-503543D2*
X-700580D1*
X-296436D2*
X615864D1*
X758828D2*
X984336D1*
X-1294352Y-515223D2*
X-688908D1*
X-301026D2*
X35163D1*
X71043D2*
X153273D1*
X189154D2*
X615841D1*
X758806D2*
X984336D1*
X-1285101Y-526903D2*
X-677235D1*
X-301096D2*
X21299D1*
X84908D2*
X139409D1*
X203018D2*
X618609D1*
X756106D2*
X984336D1*
X-1277605Y-538583D2*
X-665539D1*
X-301142D2*
X15579D1*
X90652D2*
X133689D1*
X208762D2*
X624215D1*
X750454D2*
X984336D1*
X1173898D2*
X1204063D1*
X-1272852Y-550262D2*
X-653867D1*
X-301211D2*
X14079D1*
X92151D2*
X132189D1*
X210261D2*
X633719D1*
X741020D2*
X984336D1*
X1108245D2*
X1117718D1*
X1266680D2*
X1272852D1*
X-1268123Y-561942D2*
X-384774D1*
X-300012D2*
X16270D1*
X89959D2*
X134381D1*
X208070D2*
X649567D1*
X725240D2*
X987081D1*
X-1263786Y-573622D2*
X-361198D1*
X-299804D2*
X22983D1*
X83224D2*
X141093D1*
X201335D2*
X997207D1*
X1171458Y536106D2*
X1241301D1*
Y451807D1*
X1245171Y449878D1*
X1248230Y447656D1*
X1270497Y425493D1*
X1285163Y410828D1*
X1285278Y419707D1*
X1285916Y425089D1*
X1286972Y430406D1*
X1288444Y435622D1*
X1290320Y440707D1*
X1292589Y445630D1*
X1295238Y450358D1*
X1298249Y454866D1*
X1301605Y459122D1*
X1305283Y463102D1*
X1309264Y466781D1*
X1313520Y470136D1*
X1318028Y473148D1*
X1322756Y475797D1*
X1327678Y478066D1*
X1332764Y479942D1*
X1335759Y480786D1*
X1306182Y501850D1*
X1280837Y533828D1*
X1278050Y540374D1*
X1265122Y572479D1*
X1264045Y582699D1*
X441715Y582677D1*
X442495Y577770D1*
Y573062D1*
X441757Y568412D1*
X440303Y563936D1*
X438165Y559741D1*
X435399Y555933D1*
X432070Y552604D1*
X428261Y549837D1*
X424067Y547699D1*
X419591Y546245D1*
X416996Y545752D1*
X356493Y485353D1*
X353434Y483130D1*
X350066Y481415D1*
X346470Y480245D1*
X342736Y479655D1*
X311318Y479580D1*
X253115D1*
X219584Y446070D1*
X222327Y444665D1*
X1091930Y444668D1*
X1091933Y535917D1*
X1165564D1*
X1165552Y536106D1*
X1171458D1*
X1094432Y389303D2*
X1091933D1*
Y392555D1*
X235539Y392542D1*
X235455Y215408D1*
X234768Y211064D1*
X233408Y206881D1*
X231411Y202961D1*
X228825Y199403D1*
X210629Y181083D1*
X181969Y152423D1*
X810528Y152429D1*
X1034812Y376619D1*
X1037622Y378661D1*
X1040715Y380238D1*
X1044017Y381310D1*
X1047446Y381853D1*
X1079563Y381921D1*
X1082198Y384066D1*
X1086213Y386525D1*
X1090562Y388327D1*
X1094516Y389302D1*
X1121008Y-426891D2*
Y-376906D1*
X1117516Y-377970D1*
X1112866Y-378707D1*
X1108157D1*
X1103508Y-377970D1*
X1099031Y-376516D1*
X1094837Y-374378D1*
X1092655Y-372894D1*
X1088917Y-374189D1*
X1084171Y-378936D1*
X1084184Y-424467D1*
X1088562Y-428861D1*
X1114681Y-428858D1*
X1114685Y-426890D1*
X1121029D1*
X1124794Y-542869D2*
X1265503D1*
Y-571349D1*
X1278177Y-540060D1*
X1263262Y-540039D1*
X1263268Y-542008D1*
X1205236D1*
Y-532157D1*
X1172713Y-532165D1*
X1172717Y-542008D1*
X1114685D1*
Y-508551D1*
X1107045Y-508543D1*
X1107056Y-556650D1*
X1118867Y-556648D1*
X1118888Y-542869D1*
X1124794D1*
X-1285278Y408875D2*
X-1285916Y403493D1*
X-1286972Y398177D1*
X-1288444Y392961D1*
X-1290320Y387875D1*
X-1292589Y382953D1*
X-1295238Y378224D1*
X-1298249Y373717D1*
X-1301605Y369461D1*
X-1305283Y365480D1*
X-1309264Y361802D1*
X-1313520Y358446D1*
X-1318028Y355434D1*
X-1322756Y352786D1*
X-1327678Y350517D1*
X-1332764Y348640D1*
X-1337980Y347169D1*
X-1343297Y346113D1*
X-1348678Y345475D1*
X-1354094Y345262D1*
X-1359510Y345475D1*
X-1364892Y346113D1*
X-1370209Y347169D1*
X-1375425Y348640D1*
X-1380510Y350517D1*
X-1387780Y354100D1*
X-1387795Y321400D1*
X-1303304Y304280D1*
X-1294879Y300929D1*
X-1291550Y298181D1*
X-1286958Y293991D1*
X-1282260Y285598D1*
X-1281424Y281364D1*
X-1280512Y275673D1*
X-1280585Y-355256D1*
X-1282203Y-364178D1*
X-1284238Y-367986D1*
X-1287437Y-373316D1*
X-1294352Y-379323D1*
X-1290320Y-387875D1*
X-1288444Y-392961D1*
X-1286972Y-398177D1*
X-1285916Y-403493D1*
X-1285278Y-408875D1*
X-1285066Y-414291D1*
X-1285278Y-419707D1*
X-1285916Y-425089D1*
X-1286972Y-430406D1*
X-1288444Y-435622D1*
X-1290320Y-440707D1*
X-1292589Y-445630D1*
X-1295238Y-450358D1*
X-1298249Y-454866D1*
X-1301605Y-459122D1*
X-1305283Y-463102D1*
X-1309264Y-466781D1*
X-1313520Y-470136D1*
X-1318028Y-473148D1*
X-1322756Y-475797D1*
X-1327678Y-478066D1*
X-1332764Y-479942D1*
X-1335759Y-480786D1*
X-1306181Y-501852D1*
X-1280836Y-533829D1*
X-1278049Y-540375D1*
X-1265121Y-572478D1*
X-1264043Y-582699D1*
X-356823Y-582677D1*
X-358227Y-579743D1*
X-359681Y-575266D1*
X-360419Y-570617D1*
X-360449Y-566690D1*
X-364125Y-567206D1*
X-368833D1*
X-373483Y-566469D1*
X-377959Y-565014D1*
X-382154Y-562877D1*
X-384336Y-561392D1*
X-633470Y-561318D1*
X-637203Y-560727D1*
X-640799Y-559558D1*
X-644168Y-557841D1*
X-647227Y-555619D1*
X-669495Y-533457D1*
X-930860Y-272092D1*
X-930844Y-327517D1*
X-858381Y-399996D1*
X-853513Y-401136D1*
X-849164Y-402938D1*
X-845150Y-405398D1*
X-841571Y-408455D1*
X-838513Y-412034D1*
X-836054Y-416049D1*
X-834252Y-420398D1*
X-833152Y-424975D1*
X-832783Y-429668D1*
X-833152Y-434361D1*
X-834252Y-438938D1*
X-836054Y-443287D1*
X-838513Y-447302D1*
X-841571Y-450881D1*
X-845150Y-453938D1*
X-849164Y-456398D1*
X-853513Y-458199D1*
X-858091Y-459299D1*
X-862783Y-459668D1*
X-867476Y-459299D1*
X-872054Y-458199D1*
X-876403Y-456398D1*
X-880417Y-453938D1*
X-883996Y-450881D1*
X-887054Y-447302D1*
X-889513Y-443287D1*
X-891315Y-438938D1*
X-892448Y-434077D1*
X-905969Y-420558D1*
X-905281Y-423738D1*
X-904912Y-428430D1*
X-905281Y-433123D1*
X-906381Y-437701D1*
X-908182Y-442050D1*
X-910642Y-446064D1*
X-913699Y-449643D1*
X-917278Y-452701D1*
X-921293Y-455160D1*
X-925642Y-456962D1*
X-930219Y-458062D1*
X-934912Y-458430D1*
X-939605Y-458062D1*
X-944182Y-456962D1*
X-948531Y-455160D1*
X-952546Y-452701D1*
X-956125Y-449643D1*
X-959182Y-446064D1*
X-961642Y-442050D1*
X-963444Y-437701D1*
X-964576Y-432840D1*
X-972290Y-425127D1*
X-972088Y-428513D1*
X-972457Y-433206D1*
X-973556Y-437783D1*
X-975358Y-442133D1*
X-977818Y-446147D1*
X-980875Y-449726D1*
X-984454Y-452783D1*
X-988469Y-455243D1*
X-992818Y-457045D1*
X-997395Y-458144D1*
X-1002088Y-458513D1*
X-1006781Y-458144D1*
X-1011358Y-457045D1*
X-1015707Y-455243D1*
X-1019722Y-452783D1*
X-1023301Y-449726D1*
X-1026358Y-446147D1*
X-1028818Y-442133D1*
X-1030619Y-437783D1*
X-1031752Y-432923D1*
X-1034088Y-430169D1*
X-1036066Y-426938D1*
X-1037920Y-428185D1*
X-1041917Y-432181D1*
X-1043051Y-437042D1*
X-1044853Y-441391D1*
X-1047312Y-445406D1*
X-1050370Y-448984D1*
X-1053949Y-452042D1*
X-1057963Y-454501D1*
X-1062312Y-456303D1*
X-1066890Y-457403D1*
X-1071583Y-457772D1*
X-1076276Y-457403D1*
X-1080853Y-456303D1*
X-1085202Y-454501D1*
X-1089217Y-452042D1*
X-1092795Y-448984D1*
X-1095853Y-445406D1*
X-1098312Y-441391D1*
X-1100114Y-437042D1*
X-1101214Y-432465D1*
X-1101583Y-427772D1*
X-1101214Y-423079D1*
X-1100114Y-418501D1*
X-1098312Y-414152D1*
X-1095853Y-410138D1*
X-1092795Y-406559D1*
X-1089217Y-403501D1*
X-1085202Y-401042D1*
X-1080853Y-399240D1*
X-1075992Y-398108D1*
X-1070693Y-392807D1*
X-1070701Y-174164D1*
X-1073336Y-169912D1*
X-1075138Y-165563D1*
X-1076238Y-160986D1*
X-1076606Y-156293D1*
X-1076238Y-151600D1*
X-1075138Y-147022D1*
X-1073336Y-142673D1*
X-1070877Y-138659D1*
X-1067819Y-135080D1*
X-1064240Y-132022D1*
X-1060226Y-129563D1*
X-1055877Y-127761D1*
X-1051299Y-126661D1*
X-1046606Y-126293D1*
X-1041913Y-126661D1*
X-1038690Y-127379D1*
X-1038689Y-110096D1*
X-1061887Y-86808D1*
X-1064110Y-83749D1*
X-1065825Y-80381D1*
X-1066995Y-76785D1*
X-1067585Y-73051D1*
X-1067660Y-41633D1*
Y82776D1*
X-1070295Y87050D1*
X-1072097Y91399D1*
X-1073197Y95976D1*
X-1073566Y100669D1*
X-1073197Y105362D1*
X-1072097Y109940D1*
X-1070295Y114289D1*
X-1067836Y118303D1*
X-1064778Y121882D1*
X-1061199Y124940D1*
X-1057185Y127399D1*
X-1052836Y129201D1*
X-1048259Y130301D1*
X-1043566Y130669D1*
X-1038873Y130301D1*
X-1034295Y129201D1*
X-1029946Y127399D1*
X-1025932Y124940D1*
X-1022353Y121882D1*
X-1019295Y118303D1*
X-1016836Y114289D1*
X-1015034Y109940D1*
X-1013934Y105362D1*
X-1013566Y100669D1*
X-1013934Y95976D1*
X-1015034Y91399D1*
X-1016836Y87050D1*
X-1019471Y82812D1*
Y-61202D1*
X-1003022Y-77629D1*
X-1002942Y29463D1*
X-1002352Y33197D1*
X-1001184Y36793D1*
X-999467Y40161D1*
X-997244Y43220D1*
X-975081Y65488D1*
X-916407Y124163D1*
X-915251Y129046D1*
X-913449Y133395D1*
X-910990Y137409D1*
X-907932Y140988D1*
X-904353Y144046D1*
X-900339Y146505D1*
X-895990Y148307D1*
X-891412Y149407D1*
X-886719Y149776D1*
X-882026Y149407D1*
X-877449Y148307D1*
X-873100Y146505D1*
X-869430Y144276D1*
X-871552Y149247D1*
X-872652Y153824D1*
X-873021Y158517D1*
X-872652Y163210D1*
X-871552Y167787D1*
X-869751Y172136D1*
X-869270Y172996D1*
X-873219Y170588D1*
X-877568Y168786D1*
X-882146Y167686D1*
X-886839Y167318D1*
X-891531Y167686D1*
X-896109Y168786D1*
X-900458Y170588D1*
X-904472Y173047D1*
X-908051Y176105D1*
X-911109Y179684D1*
X-913568Y183698D1*
X-915370Y188047D1*
X-916470Y192625D1*
X-916839Y197318D1*
X-916470Y202010D1*
X-915370Y206588D1*
X-913568Y210937D1*
X-911109Y214951D1*
X-908051Y218530D1*
X-904472Y221588D1*
X-900458Y224047D1*
X-896109Y225849D1*
X-891531Y226949D1*
X-886839Y227318D1*
X-882146Y226949D1*
X-877568Y225849D1*
X-873219Y224047D1*
X-872424Y223602D1*
X-817991Y223528D1*
X-814257Y222937D1*
X-810661Y221768D1*
X-807293Y220052D1*
X-804234Y217829D1*
X-790829Y204531D1*
X-788374Y201656D1*
X-786399Y198432D1*
X-784953Y194940D1*
X-784070Y191262D1*
X-783773Y187486D1*
X-783848Y101055D1*
X-784438Y97322D1*
X-785608Y93726D1*
X-787324Y90357D1*
X-789546Y87298D1*
X-811709Y65030D1*
X-905650Y-28911D1*
X-905659Y-229161D1*
X-718001Y-416801D1*
X-718218Y-412866D1*
X-717801Y-407558D1*
X-716556Y-402379D1*
X-714518Y-397459D1*
X-711736Y-392919D1*
X-708278Y-388869D1*
X-704228Y-385411D1*
X-699688Y-382629D1*
X-694768Y-380591D1*
X-689589Y-379346D1*
X-684281Y-378929D1*
X-678972Y-379346D1*
X-673794Y-380591D1*
X-668874Y-382629D1*
X-664333Y-385411D1*
X-660283Y-388869D1*
X-656825Y-392919D1*
X-654043Y-397459D1*
X-652005Y-402379D1*
X-651871Y-402850D1*
X-590856Y-463865D1*
X-345990Y-463875D1*
X-343131Y-462521D1*
X-338067Y-460877D1*
X-332807Y-460043D1*
X-327482D1*
X-322222Y-460877D1*
X-317157Y-462521D1*
X-312412Y-464940D1*
X-308104Y-468070D1*
X-304339Y-471835D1*
X-301209Y-476143D1*
X-298790Y-480888D1*
X-297146Y-485953D1*
X-296312Y-491213D1*
Y-496538D1*
X-297146Y-501798D1*
X-298790Y-506862D1*
X-301209Y-511608D1*
X-302209Y-513105D1*
X-302427Y-557705D1*
X-301340Y-561259D1*
X-300602Y-565908D1*
Y-570617D1*
X-301340Y-575266D1*
X-302794Y-579743D1*
X-304226Y-582677D1*
X35432D1*
X30850Y-579827D1*
X26331Y-575967D1*
X22471Y-571448D1*
X19366Y-566381D1*
X17092Y-560890D1*
X15703Y-555112D1*
X15238Y-549186D1*
X15703Y-543261D1*
X17092Y-537483D1*
X19366Y-531992D1*
X22471Y-526925D1*
X26331Y-522406D1*
X30850Y-518546D1*
X35917Y-515441D1*
X41408Y-513167D1*
X47186Y-511778D1*
X53112Y-511312D1*
X59037Y-511778D1*
X64815Y-513167D1*
X70306Y-515441D1*
X75373Y-518546D1*
X79892Y-522406D1*
X83752Y-526925D1*
X86857Y-531992D1*
X89131Y-537483D1*
X90520Y-543261D1*
X90986Y-549186D1*
X90520Y-555112D1*
X89131Y-560890D1*
X86857Y-566381D1*
X83752Y-571448D1*
X79892Y-575967D1*
X75373Y-579827D1*
X70762Y-582677D1*
X153542D1*
X148961Y-579827D1*
X144441Y-575967D1*
X140581Y-571448D1*
X137476Y-566381D1*
X135202Y-560890D1*
X133814Y-555112D1*
X133348Y-549186D1*
X133814Y-543261D1*
X135202Y-537483D1*
X137476Y-531992D1*
X140581Y-526925D1*
X144441Y-522406D1*
X148961Y-518546D1*
X154028Y-515441D1*
X159518Y-513167D1*
X165297Y-511778D1*
X171222Y-511312D1*
X177147Y-511778D1*
X182925Y-513167D1*
X188416Y-515441D1*
X193483Y-518546D1*
X198003Y-522406D1*
X201862Y-526925D1*
X204967Y-531992D1*
X207241Y-537483D1*
X208630Y-543261D1*
X209096Y-549186D1*
X208630Y-555112D1*
X207241Y-560890D1*
X204967Y-566381D1*
X201862Y-571448D1*
X198003Y-575967D1*
X193483Y-579827D1*
X188873Y-582677D1*
X1007442Y-582678D1*
X991287Y-566419D1*
X989064Y-563360D1*
X987348Y-559991D1*
X986180Y-556395D1*
X985588Y-552661D1*
X985514Y-521243D1*
Y-377504D1*
X962802Y-354812D1*
X912512Y-404945D1*
X908703Y-407711D1*
X904509Y-409849D1*
X900033Y-411303D1*
X895383Y-412041D1*
X875312Y-412133D1*
X73892D1*
X68509Y-414408D1*
X63331Y-415652D1*
X58022Y-416070D1*
X52714Y-415652D1*
X47535Y-414408D1*
X42615Y-412370D1*
X38932Y-410160D1*
X23259Y-410164D1*
X18139Y-411446D1*
X13446Y-411815D1*
X8753Y-411446D1*
X4176Y-410346D1*
X-173Y-408545D1*
X-4188Y-406085D1*
X-7766Y-403028D1*
X-10824Y-399449D1*
X-13283Y-395434D1*
X-15085Y-391085D1*
X-16185Y-386508D1*
X-16554Y-381815D1*
X-16185Y-377122D1*
X-15085Y-372545D1*
X-13283Y-368196D1*
X-10824Y-364181D1*
X-7766Y-360602D1*
X-4188Y-357545D1*
X-173Y-355085D1*
X4176Y-353283D1*
X8753Y-352184D1*
X13446Y-351815D1*
X18139Y-352184D1*
X22717Y-353283D1*
X25257Y-354101D1*
X29987D1*
X27760Y-347245D1*
X27022Y-342596D1*
Y-337887D1*
X27760Y-333238D1*
X29214Y-328761D1*
X31352Y-324567D1*
X34118Y-320759D1*
X37448Y-317429D1*
X41256Y-314663D1*
X45450Y-312525D1*
X49927Y-311071D1*
X54576Y-310333D1*
X59285D1*
X63934Y-311071D1*
X68411Y-312525D1*
X72605Y-314663D1*
X76413Y-317429D1*
X79743Y-320759D1*
X82509Y-324567D1*
X84647Y-328761D1*
X86101Y-333238D1*
X86839Y-337887D1*
Y-342596D1*
X86054Y-347413D1*
X87550Y-352133D1*
X880618D1*
X999331Y-233535D1*
X1003139Y-230769D1*
X1007333Y-228631D1*
X1011810Y-227177D1*
X1016459Y-226440D1*
X1036530Y-226348D1*
X1121399D1*
X1121411Y-149576D1*
X1150133Y-149512D1*
X1157424Y-142220D1*
X1157344Y-83541D1*
X1149029Y-83470D1*
X1109659Y-83404D1*
X1106382Y-82886D1*
X1103227Y-81861D1*
X1100272Y-80354D1*
X1097587Y-78404D1*
X1067138Y-48047D1*
X1004810Y14281D1*
X148802D1*
X145790Y11761D1*
X141776Y9302D1*
X137427Y7500D1*
X132849Y6400D1*
X128156Y6031D1*
X123463Y6400D1*
X118886Y7500D1*
X114537Y9302D1*
X110522Y11761D1*
X106944Y14819D1*
X103886Y18398D1*
X101427Y22412D1*
X99625Y26761D1*
X98525Y31339D1*
X98156Y36031D1*
X98525Y40724D1*
X99625Y45302D1*
X101427Y49651D1*
X103625Y53274D1*
X101442Y56904D1*
X99640Y61253D1*
X98541Y65831D1*
X98172Y70524D1*
X98541Y75217D1*
X99640Y79794D1*
X101442Y84143D1*
X103902Y88157D1*
X106959Y91736D1*
X110538Y94794D1*
X114552Y97253D1*
X118902Y99055D1*
X123479Y100155D1*
X125059Y100341D1*
X121879Y100672D1*
X117302Y101772D1*
X112953Y103573D1*
X108938Y106033D1*
X105360Y109091D1*
X102302Y112669D1*
X99843Y116684D1*
X98041Y121033D1*
X96941Y125610D1*
X96572Y130303D1*
X96941Y134996D1*
X97538Y137794D1*
X87886Y137795D1*
X88278Y-122349D1*
X87837Y-125169D1*
X86959Y-127886D1*
X85668Y-130430D1*
X83995Y-132743D1*
X81980Y-134765D1*
X79675Y-136446D1*
X77133Y-137747D1*
X74420Y-138633D1*
X71602Y-139084D1*
X22886Y-139110D1*
X-434045Y-138732D1*
X-436864Y-138283D1*
X-439577Y-137399D1*
X-442119Y-136102D1*
X-444428Y-134423D1*
X-446445Y-132403D1*
X-448121Y-130093D1*
X-449415Y-127549D1*
X-450294Y-124833D1*
X-450739Y-122008D1*
X-450853Y-65185D1*
X-583026Y-65186D1*
X-583038Y-301450D1*
X-514925Y-369554D1*
X-364696Y-369570D1*
X-365517Y-364555D1*
Y-359846D1*
X-364780Y-355197D1*
X-363325Y-350720D1*
X-361188Y-346526D1*
X-358421Y-342718D1*
X-355092Y-339388D1*
X-351283Y-336622D1*
X-347089Y-334484D1*
X-342613Y-333030D1*
X-337963Y-332293D1*
X-333255D1*
X-328605Y-333030D1*
X-324129Y-334484D1*
X-319934Y-336622D1*
X-316126Y-339388D1*
X-312797Y-342718D1*
X-310030Y-346526D1*
X-307892Y-350720D1*
X-306438Y-355197D1*
X-305701Y-359846D1*
Y-364555D1*
X-306438Y-369205D1*
X-307577Y-372827D1*
Y-379525D1*
X-304957Y-384614D1*
X-303312Y-389678D1*
X-302479Y-394938D1*
Y-400264D1*
X-303312Y-405524D1*
X-304957Y-410588D1*
X-307375Y-415333D1*
X-310505Y-419642D1*
X-314270Y-423407D1*
X-318579Y-426537D1*
X-323324Y-428955D1*
X-328388Y-430600D1*
X-333648Y-431433D1*
X-338974D1*
X-344234Y-430600D1*
X-349298Y-428955D1*
X-354043Y-426537D1*
X-355402Y-425629D1*
X-528720Y-425546D1*
X-533064Y-424858D1*
X-537248Y-423499D1*
X-541168Y-421501D1*
X-544726Y-418916D1*
X-563046Y-400719D1*
X-632385Y-331257D1*
X-634970Y-327699D1*
X-636967Y-323780D1*
X-638327Y-319596D1*
X-639014Y-315252D1*
X-639101Y-289430D1*
X-639243Y-48625D1*
X-745058Y57190D1*
X-749251Y58264D1*
X-754171Y60302D1*
X-758711Y63084D1*
X-762761Y66542D1*
X-766219Y70592D1*
X-769001Y75133D1*
X-771039Y80052D1*
X-772283Y85231D1*
X-772701Y90539D1*
X-772283Y95848D1*
X-771039Y101026D1*
X-769001Y105946D1*
X-766219Y110487D1*
X-762853Y114437D1*
X-762913Y343629D1*
X-765373Y347643D1*
X-767175Y351992D1*
X-768274Y356570D1*
X-768643Y361262D1*
X-768274Y365955D1*
X-767175Y370533D1*
X-765373Y374882D1*
X-762858Y378979D1*
X-762783Y462825D1*
X-762193Y466559D1*
X-761024Y470155D1*
X-759307Y473524D1*
X-757085Y476583D1*
X-734923Y498850D1*
X-696736Y537037D1*
X-696741Y554987D1*
X-698825Y559089D1*
X-700280Y563566D1*
X-701017Y568215D1*
X-701070Y569567D1*
X-726311Y544434D1*
X-727957Y543596D1*
X-729852Y543307D1*
X-729861Y503913D1*
X-765294Y503814D1*
X-813483D1*
Y543329D1*
X-903094Y543307D1*
X-903089Y503814D1*
X-986711D1*
Y543421D1*
X-988253Y543950D1*
X-989749Y545038D1*
X-1027394Y582682D1*
X-1264046Y582676D1*
X-1265163Y572307D1*
X-1280459Y534478D1*
X-1284776Y528823D1*
X-1306310Y501730D1*
X-1335703Y480827D1*
X-1327678Y478066D1*
X-1322756Y475797D1*
X-1318028Y473148D1*
X-1313520Y470136D1*
X-1309264Y466781D1*
X-1305283Y463102D1*
X-1301605Y459122D1*
X-1298249Y454866D1*
X-1295238Y450358D1*
X-1292589Y445630D1*
X-1290320Y440707D1*
X-1288444Y435622D1*
X-1286972Y430406D1*
X-1285916Y425089D1*
X-1285278Y419707D1*
X-1285066Y414291D1*
X-1285278Y408875D1*
X1154916Y207917D2*
X1172001D1*
Y203050D1*
X1199923Y230857D1*
X1202732Y232899D1*
X1205825Y234475D1*
X1209127Y235547D1*
X1212556Y236091D1*
X1249726Y236159D1*
X1288458D1*
X1288596Y244829D1*
Y263630D1*
X1286451Y266262D1*
X1283992Y270277D1*
X1282190Y274626D1*
X1281091Y279203D1*
X1280722Y283896D1*
X1281091Y288589D1*
X1282190Y293167D1*
X1283071Y295518D1*
X1268168Y295513D1*
X1268189Y244213D1*
X1200315D1*
Y249135D1*
X1177630Y249134D1*
X1177638Y244213D1*
X1154916D1*
X1154934Y207937D1*
X-641201Y568215D2*
X-641938Y563566D1*
X-643392Y559089D1*
X-645530Y554895D1*
X-648552Y550810D1*
X-648627Y525160D1*
X-649218Y521427D1*
X-650387Y517831D1*
X-652104Y514462D1*
X-654325Y511403D1*
X-676488Y489135D1*
X-714675Y450949D1*
X-714669Y379295D1*
X-711913Y374882D1*
X-710112Y370533D1*
X-709012Y365955D1*
X-708643Y361262D1*
X-709012Y356570D1*
X-710112Y351992D1*
X-711913Y347643D1*
X-714675Y343245D1*
X-714669Y114454D1*
X-711308Y110487D1*
X-708526Y105946D1*
X-706488Y101026D1*
X-705446Y96860D1*
X-599458Y-9123D1*
X-450906D1*
X-451176Y241948D1*
X-556390Y241958D1*
X-560079Y240819D1*
X-564728Y240081D1*
X-569437D1*
X-574087Y240819D1*
X-578563Y242273D1*
X-582757Y244411D1*
X-586566Y247177D1*
X-589895Y250507D1*
X-592661Y254315D1*
X-594799Y258509D1*
X-596253Y262986D1*
X-596991Y267635D1*
Y272344D1*
X-596253Y276993D1*
X-594799Y281470D1*
X-592661Y285664D1*
X-589895Y289472D1*
X-586566Y292802D1*
X-582757Y295568D1*
X-578563Y297706D1*
X-574087Y299160D1*
X-569437Y299898D1*
X-564728D1*
X-560079Y299160D1*
X-556457Y298021D1*
X-451256D1*
X-451324Y437252D1*
X-450878Y440072D1*
X-449995Y442791D1*
X-461093Y442932D1*
X-470337Y444555D1*
X-475471Y447290D1*
X-479371Y449638D1*
X-485627Y456726D1*
X-487929Y462068D1*
X-489420Y465885D1*
X-515740Y582678D1*
X-643684Y582677D1*
X-642577Y579840D1*
X-641478Y575262D1*
X-641109Y570570D1*
X-641201Y568215D1*
X146793Y108172D2*
X144206Y106033D1*
X140192Y103573D1*
X135843Y101772D1*
X131265Y100672D1*
X129685Y100486D1*
X132865Y100155D1*
X137442Y99055D1*
X141791Y97253D1*
X145806Y94794D1*
X149385Y91736D1*
X152442Y88157D1*
X154902Y84143D1*
X156703Y79794D1*
X157803Y75217D1*
X158113Y73535D1*
X1007007D1*
X1007004Y286331D1*
X834060Y113479D1*
X831251Y111437D1*
X828157Y109861D1*
X824856Y108789D1*
X821427Y108245D1*
X784257Y108177D1*
X146854D1*
X721018Y-562911D2*
X701693Y-567231D1*
X699025Y-567420D1*
X674030Y-567324D1*
X671312Y-566903D1*
X652072Y-562420D1*
X649425Y-561353D1*
X646146Y-559256D1*
X630719Y-546840D1*
X628797Y-544730D1*
X626752Y-541416D1*
X618241Y-523537D1*
X617425Y-520802D1*
X617046Y-517967D1*
X617051Y-498555D1*
X617280Y-495710D1*
X617951Y-492936D1*
X618875Y-490647D1*
X627345Y-473199D1*
X628921Y-470820D1*
X630850Y-468717D1*
X647488Y-455495D1*
X649972Y-454091D1*
X653656Y-452833D1*
X672982Y-448514D1*
X681531Y-448335D1*
X700675Y-448423D1*
X709050Y-450151D1*
X722602Y-453325D1*
X725249Y-454392D1*
X727701Y-455864D1*
X743955Y-468906D1*
X745878Y-471016D1*
X747449Y-473406D1*
X756433Y-492209D1*
X757249Y-494944D1*
X757629Y-497778D1*
X757564Y-518617D1*
X757114Y-521436D1*
X756224Y-524154D1*
X747129Y-542900D1*
X745499Y-545243D1*
X743518Y-547306D1*
X727186Y-560251D1*
X724702Y-561655D1*
X722022Y-562655D1*
X655358Y562911D2*
X674483Y567201D1*
X677328Y567420D1*
X702377Y567323D1*
X710752Y565594D1*
X724304Y562420D1*
X726951Y561353D1*
X729403Y559882D1*
X745657Y546840D1*
X747580Y544730D1*
X749151Y542340D1*
X758135Y523537D1*
X758951Y520802D1*
X759331Y517967D1*
X759266Y497129D1*
X758816Y494310D1*
X757927Y491592D1*
X748831Y472845D1*
X747201Y470503D1*
X745220Y468440D1*
X728888Y455495D1*
X726404Y454091D1*
X723724Y453091D1*
X703395Y448514D1*
X694845Y448335D1*
X675702Y448424D1*
X667327Y450151D1*
X653774Y453325D1*
X651127Y454392D1*
X648676Y455864D1*
X632421Y468906D1*
X630499Y471016D1*
X628928Y473406D1*
X619944Y492209D1*
X619127Y494944D1*
X618748Y497778D1*
X618812Y518617D1*
X619262Y521436D1*
X620152Y524154D1*
X629248Y542899D1*
X630878Y545243D1*
X632858Y547306D1*
X649190Y560251D1*
X651675Y561655D1*
X654354Y562655D1*
X1314685Y68386D2*
X1340075D1*
X1334646Y68898D1*
X1297762D1*
X1299724Y68386D1*
X1314685D1*
X1315377Y-68386D2*
X1297521D1*
X1300033Y-68898D1*
X1315512D1*
X1263268Y-479013D2*
Y-491843D1*
X1270492Y-491850D1*
X1272249Y-490115D1*
X1272245Y-474101D1*
X1263739Y-465488D1*
X1263268Y-468228D1*
X1263245Y-479016D1*
X1121031Y-393136D2*
D10*
X1160850D1*
X1225660Y-542892D2*
Y-580743D1*
X1234252Y293898D2*
X1268167D1*
X1234252Y268307D2*
Y244235D1*
Y268307D2*
X1268167D1*
X1338583Y68362D2*
Y40354D1*
X1312992Y-40354D2*
Y-68364D1*
X1234252Y-484449D2*
X1263245D1*
X1143701Y-515945D2*
Y-541986D1*
X1114709Y-515945D2*
X1143701D1*
D24*
X1203427Y496264D3*
Y429335D3*
X1129807Y496075D3*
Y429146D3*
D25*
X1227780Y-393136D3*
X1160850D3*
X1158731Y-580743D3*
X1225660D3*
D24*
X1134127Y168075D3*
Y101146D3*
X1227026Y-188705D3*
Y-255634D3*
X1159285Y-189419D3*
Y-256348D3*
D25*
X1226558Y-326266D3*
X1159629D3*
D33*
X-944900Y545625D3*
X-771672D3*
D104*
X687337Y-507873D3*
X689039Y507873D3*
D45*
X1234252Y319488D3*
Y293898D3*
Y268307D3*
X1143701D3*
Y293898D3*
Y319488D3*
D46*
X1188976Y293898D3*
D47*
X1338583Y40354D3*
X1364173D3*
Y-40354D3*
X1338583D3*
X1312992Y40354D3*
X1389764D3*
Y-40354D3*
X1312992D3*
D110*
X1188976Y-484449D3*
D49*
X1234252D3*
X1143701D3*
X1234252Y-452953D3*
Y-515945D3*
X1143701D3*
Y-452953D3*
M02*
