M48
INCH
T01C0.0118
T02C0.0157
T03C0.0315
T04C0.0394
T05C0.0433
T06C0.0591
%
T01
X+002619Y+005763
X+004126Y+005754
X+003037Y+003860
X+002812Y+003620
X+002562Y+003350
X+002075Y+004186
X+001181Y+002559
X+001178Y+002003
X+001266Y+001303
X+001282Y+000705
X+001282Y+000360
X+001323Y-000448
X+001569Y-000594
X+001329Y-000788
X+001582Y-000954
X+001329Y-001118
X+002828Y-000849
X+003037Y-001515
X+003284Y-002085
X+003626Y-002636
X+004082Y-003206
X+005334Y-001729
X+005744Y-001310
X+006222Y-000832
X+007072Y-001648
X+007705Y-001648
X+008370Y-001637
X+008124Y-000500
X+008681Y-000478
X+009175Y-000478
X+011786Y-000623
X+011791Y-000147
X+013129Y-000764
X+013546Y-000779
X+013382Y+000757
X+013911Y+000782
X+013608Y+001470
X+013107Y+002839
X+012724Y+002817
X+012307Y+003654
X+010998Y+003598
X+011072Y+002686
X+011272Y+005584
X+011645Y+005584
X+011990Y+005593
X+006928Y+002199
X+006285Y+002199
X+005643Y+002170
X+004690Y+003427
X+004101Y+003009
X+003588Y+002496
X+003132Y+001869
X+002857Y+000971
X+004134Y+000974
X+004700Y-000129
X+004700Y-000600
X+004700Y-001100
X+006257Y-002646
X+006793Y-002624
X+007297Y-002614
X+008771Y-005685
X+009251Y-005685
X+011156Y-005159
X+010936Y-004183
X+011103Y-004000
X+011105Y-003488
X+012625Y-004847
X+012633Y-005525
X+004667Y-005698
X+004274Y-005691
X+002021Y-003319
X+002177Y-002853
X+000569Y-003402
X+000134Y-003818
X-000511Y-004500
X-002074Y-002704
X-002085Y-002128
X-003356Y-003622
X-004161Y-002950
X-004160Y-002609
X-005193Y-002646
X-005464Y-002499
X-005464Y-002829
X-005205Y-002294
X-005464Y-002125
X-005464Y-001825
X-004493Y-001505
X-004668Y-001174
X-004117Y-001525
X-004835Y+001250
X-006122Y+001342
X-006131Y+001695
X-006142Y+002027
X-005671Y+002700
X-004806Y+003622
X-005051Y+003892
X-005304Y+004177
X-006711Y+005706
X-007386Y+003613
X-008868Y+001973
X-008430Y+001585
X-008867Y+001198
X-010436Y+001007
X-010115Y-000169
X-010115Y-000560
X-010466Y-001563
X-010817Y-001969
X-010822Y-002283
X-009206Y-003048
X-008998Y-003285
X-009349Y-004284
X-010021Y-004285
X-010716Y-004278
X-010723Y-005711
X-010001Y-005723
X-009309Y-005707
X-008636Y-005711
X-008628Y-004297
X-006946Y-002776
X-006985Y-001394
X-007282Y-001394
X-007591Y-001400
X-007921Y-001394
X-008881Y-001162
X-006330Y+000530
X-001309Y-000254
X-003665Y-005373
X-003305Y-005683
X-011535Y-005723
X-012232Y-005724
X-012280Y-000495
X-012275Y-000119
X-012260Y+000307
X-012260Y+000695
X-012128Y+005431
X-011769Y+005426
X-011405Y+005429
X-011048Y+005423
X+005375Y+003769
T02
X-007388Y+000905
X-006843Y-004129
X-003363Y-003976
X-003301Y-004939
X+000580Y-003821
X+007077Y+000006
T03
X-009449Y+005456
X-007717Y+005456
T04
X+000531Y-005492
X+001712Y-005492
T05
X+006755Y-005079G85X+006991Y-005079
X+006772Y+005079G85X+007009Y+005079
T06
X-013541Y+004143
X-013541Y-004143
X+013541Y-004143
X+013541Y+004143
T00
M30
