G04 DipTrace 3.2.0.1*
G04 Top.gbr*
%MOIN*%
G04 #@! TF.FileFunction,Copper,L1,Top*
G04 #@! TF.Part,Single*
%AMOUTLINE0*
4,1,4,
0.029542,-0.014735,
0.029513,0.014794,
-0.029542,0.014735,
-0.029513,-0.014794,
0.029542,-0.014735,
0*%
%AMOUTLINE3*
4,1,16,
-0.011741,0.041358,
-0.029685,0.037294,
-0.044088,0.025848,
-0.052097,0.009286,
-0.052129,-0.009112,
-0.044175,-0.025701,
-0.02981,-0.037196,
-0.011881,-0.041319,
0.011741,-0.041358,
0.029685,-0.037294,
0.044088,-0.025848,
0.052097,-0.009286,
0.052129,0.009112,
0.044175,0.025701,
0.02981,0.037196,
0.011881,0.041319,
-0.011741,0.041358,
0*%
%AMOUTLINE6*
4,1,4,
-0.029562,-0.013706,
0.029492,-0.013854,
0.029562,0.013706,
-0.029492,0.013854,
-0.029562,-0.013706,
0*%
G04 #@! TA.AperFunction,CopperBalancing*
%ADD10C,0.009843*%
%ADD15C,0.011811*%
G04 #@! TA.AperFunction,Conductor*
%ADD16C,0.027559*%
%ADD17C,0.015748*%
G04 #@! TA.AperFunction,ViaPad*
%ADD18C,0.023622*%
G04 #@! TA.AperFunction,Conductor*
%ADD19C,0.019685*%
%ADD20C,0.035433*%
%ADD21C,0.007874*%
%ADD24R,0.03937X0.043307*%
%ADD25R,0.043307X0.03937*%
%ADD26R,0.102362X0.094488*%
%ADD27R,0.051181X0.059055*%
%ADD28R,0.059055X0.051181*%
%ADD29R,0.19685X0.07874*%
%ADD30R,0.01378X0.031496*%
%ADD31R,0.031496X0.01378*%
%ADD32R,0.03937X0.059055*%
G04 #@! TA.AperFunction,ComponentPad*
%ADD33R,0.047244X0.047244*%
%ADD34R,0.059055X0.055118*%
%ADD35R,0.043307X0.055118*%
%ADD36C,0.669291*%
%ADD37R,0.049213X0.011811*%
%ADD38R,0.086614X0.070866*%
%ADD39R,0.024488X0.025512*%
%ADD41R,0.048031X0.03622*%
%ADD42R,0.047244X0.031496*%
%ADD43R,0.027559X0.049213*%
G04 #@! TA.AperFunction,ViaPad*
%ADD50C,0.031496*%
%ADD101OUTLINE0*%
G04 #@! TA.AperFunction,ComponentPad*
%ADD104OUTLINE3*%
%ADD107OUTLINE6*%
%FSLAX26Y26*%
G04*
G70*
G90*
G75*
G01*
G04 Top*
%LPD*%
X-951772Y-195276D2*
D15*
X-860314D1*
X-853236Y-202353D1*
Y-181571D1*
X-843975Y-172310D1*
X-665870D1*
X-655614Y-182566D1*
Y-209349D1*
X-654951Y-210012D1*
X-951772Y-214961D2*
X-897572D1*
X-875134Y-237399D1*
X-813886D1*
X-801740Y-225253D1*
Y-202353D1*
X-741182D1*
X-732818Y-210718D1*
Y-277647D2*
X-694618Y-276941D1*
X-654951D1*
X-694618Y-277623D2*
Y-276941D1*
X-951772Y-96850D2*
X-907396D1*
X-888059Y-116188D1*
X-951772Y80315D2*
X-1011564D1*
X-1020215Y71664D1*
Y-18051D1*
Y-56031D1*
Y-96850D1*
X-951772D1*
Y80315D2*
X-803411D1*
X-760050Y123676D1*
X-704938D1*
X-675264Y94001D1*
Y55453D1*
X-670408Y50597D1*
X-694618Y-277623D2*
Y-319878D1*
X-668514Y-345982D1*
X-589169D1*
Y-409974D1*
X-589751D1*
X-1072888Y-533421D2*
X-1111585D1*
X-1152501D1*
X-1152707Y-533627D1*
X-1072888Y-533421D2*
X-1001005D1*
X-1000828Y-533598D1*
X-933224D1*
X-932310Y-534513D1*
X-864585D1*
X-864114Y-534042D1*
X-1111585Y-533421D2*
Y-411487D1*
X-1127573Y-395499D1*
Y-186189D1*
X-1038235Y-96850D1*
X-1020215D1*
X-404155Y-468202D2*
Y-387089D1*
X-445262Y-345982D1*
X-589169D1*
X-1152707Y-533627D2*
X-1222245D1*
X-1222837Y-534219D1*
X-888059Y-116188D2*
Y-118932D1*
X-871928Y-135063D1*
X-792087D1*
X-759052D1*
X-728220D1*
X-698491D1*
X-541852D1*
X-415990Y-260925D1*
X-386776Y-88871D2*
Y-262114D1*
X-371785Y-277105D1*
X-416062Y-294970D2*
X-389650D1*
X-371785Y-277105D1*
X-415990Y-260925D2*
X-387965D1*
X-159491Y-267345D2*
Y-259684D1*
X-141635Y-241828D1*
X-159491Y-208824D2*
Y-223972D1*
X-141635Y-241828D1*
X22673Y-88871D2*
D17*
X131636D1*
X158152D1*
X282769D1*
X599318D1*
D15*
X688189Y0D1*
X707654Y625D2*
X688189Y0D1*
X-416062Y-294970D2*
Y-316781D1*
X-445262Y-345982D1*
X-415990Y-260925D2*
Y-294898D1*
X-416062Y-294970D1*
X-159491Y-208824D2*
Y-267345D1*
X363280Y478484D2*
Y489434D1*
D17*
X558773Y293941D1*
D15*
Y216996D1*
Y129416D1*
X688189Y0D1*
X-760050Y123676D2*
Y140902D1*
X-873194Y254046D1*
X-909230D1*
X-937373Y282189D1*
Y345900D1*
Y466538D1*
X-923247Y480664D1*
X-701210Y184636D2*
Y121765D1*
X-675264Y94001D1*
X-402524Y367822D2*
X-463555D1*
X-485150Y389416D1*
X-531253Y435520D1*
Y505568D1*
X-554307Y528622D1*
X-591580D1*
X-594092Y531134D1*
X-527604Y433755D2*
X-531253Y435520D1*
X-633000Y53010D2*
X-667995D1*
X-670408Y50597D1*
X-798354Y345900D2*
X-937373D1*
X707654Y625D2*
Y17938D1*
X1273944D1*
X1280786D1*
Y20867D1*
X1283349D1*
X1338198Y75717D1*
X1273944Y17938D2*
X1279765Y12117D1*
Y-18667D1*
X1310698Y-49600D1*
Y-74134D1*
X1312915Y-76350D1*
X1272385Y281741D2*
Y236927D1*
X1246711Y211253D1*
X918282D1*
X707654Y625D1*
X1262466Y-484724D2*
D18*
X1172913D1*
X1158778Y-470589D1*
X1103580Y-415391D1*
X844466Y-156277D1*
X688189Y0D1*
X564253Y216996D2*
D15*
X558773D1*
X837026Y-163717D2*
X844466Y-156277D1*
X-1223152Y-572412D2*
Y-534534D1*
X-1227972Y-49479D2*
Y-12336D1*
X-1227487Y-11850D1*
Y29186D1*
X-1226021Y30652D1*
Y69491D1*
X-1011470Y-56031D2*
X-1020215D1*
X-1011470Y-16923D2*
X-1020215Y-18051D1*
X-1153524Y-572252D2*
Y-534444D1*
X-1072298Y-571125D2*
Y-534012D1*
X-1072888Y-533421D1*
X-1000098Y-572252D2*
Y-534328D1*
X-930906Y-570748D2*
Y-535917D1*
X-932310Y-534513D1*
X-863594Y-571125D2*
Y-534562D1*
X-546382Y-249896D2*
Y-282883D1*
X-792087Y-139403D2*
Y-135063D1*
X-759052Y-139954D2*
Y-135063D1*
X-728220Y-139403D2*
Y-135063D1*
X-698491Y-139403D2*
Y-135063D1*
X-614222Y202682D2*
Y170585D1*
X-613135Y169499D1*
Y135109D1*
X-612235Y134209D1*
X132877Y-78815D2*
D17*
X131636Y-88871D1*
X158152Y-95421D2*
Y-88871D1*
X132345Y-44828D2*
D15*
Y-78283D1*
X132877Y-78815D1*
Y-111739D1*
X132937Y-111799D1*
X158152Y-95421D2*
Y-60675D1*
X156912Y-59434D1*
X1127211Y558386D2*
X1164453D1*
X1198147D1*
X1199034Y559273D1*
X-460087Y363182D2*
X-463555Y367822D1*
X-486068Y388497D2*
X-485150Y389416D1*
X282769Y-84944D2*
D17*
Y-88871D1*
X1110341Y-399982D2*
D15*
Y-403255D1*
X1098205Y-415391D1*
X1103580D1*
X1263286Y-552493D2*
D18*
X1152199D1*
X1115642Y-515936D1*
X1263286Y-552493D2*
X1262466Y-484724D1*
X217707Y-285301D2*
D15*
X402888D1*
X688189Y0D1*
X1093602Y-418264D2*
X1090858D1*
X1011810Y-339215D1*
Y-323621D1*
X688189Y0D1*
X1110341Y-399982D2*
X1104820D1*
X1027926Y-323088D1*
X1011277D1*
X1115642Y-515936D2*
Y-513726D1*
D18*
X1158778Y-470589D1*
X-951772Y-155906D2*
D15*
X-1046606Y-156293D1*
X-1071583Y-427772D2*
Y-465186D1*
X-1072888Y-466492D1*
X-486176Y-539252D2*
X-408276D1*
X-404155Y-535131D1*
X-951772Y198425D2*
X-887946D1*
X-886839Y197318D1*
X-366479Y-537298D2*
X-401988D1*
X-404155Y-535131D1*
X-951772Y-77165D2*
X-884433D1*
X-854778Y-106820D1*
X-521148D1*
X-455955Y-41627D1*
X-402524D1*
X-951772Y-57480D2*
X-873039D1*
X-845226Y-85294D1*
X-536864D1*
X-467606Y-16037D1*
X-402524D1*
X-951772Y-37795D2*
X-859907D1*
X-833957Y-63745D1*
X-553442D1*
X-480143Y9554D1*
X-402524D1*
X-951772Y-18110D2*
X-846773D1*
X-822675Y-42209D1*
X-568260D1*
X-490907Y35144D1*
X-402524D1*
X-951772Y1575D2*
X-833640D1*
X-811736Y-20329D1*
X-588055D1*
X-506991Y60735D1*
X-402524D1*
X-951772Y21260D2*
X-819824D1*
X-800797Y2232D1*
X-604508D1*
X-520415Y86325D1*
X-402524D1*
X-951772Y60630D2*
X-747370D1*
X-737337Y50597D1*
X-951772Y40945D2*
X-746990D1*
X-737337Y50597D1*
X-738764Y90539D2*
D19*
Y52024D1*
D15*
X-737337Y50597D1*
X-336311Y-397601D2*
D16*
X-229240D1*
D15*
X-215135Y-383496D1*
X-296982Y-277105D2*
D19*
X-292598D1*
Y-353900D1*
D15*
X-263003Y-383496D1*
X-215135D1*
X-54098Y-88871D2*
Y-137621D1*
X-28614Y-163105D1*
D19*
X-12077Y-179642D1*
D16*
X39381D1*
X78898Y-219159D1*
Y-316714D1*
X57917Y-337694D1*
Y-382133D1*
D20*
X23584D1*
D16*
Y-467493D1*
X-28508Y-88871D2*
D15*
X-28614D1*
Y-163105D1*
X-215135Y-383496D2*
D20*
Y-382133D1*
X14295D1*
X23584D1*
X207510Y418605D2*
D15*
Y470993D1*
X214854Y478337D1*
X-671109Y570570D2*
Y533406D1*
X-671949Y532566D1*
X-738643Y361262D2*
X-667073D1*
X-664227Y358416D1*
X1391113Y78234D2*
Y-41474D1*
X1354639Y-77948D1*
X1310722Y283896D2*
Y309816D1*
X1255134Y365404D1*
X1230722D1*
X58022Y-382133D2*
X57917D1*
X13446Y-381815D2*
D19*
X14295Y-382133D1*
X56930Y-340241D2*
X57917Y-337694D1*
X78898Y-219159D2*
D16*
Y-210379D1*
D15*
X110346Y-241828D1*
X-335609Y-362201D2*
D19*
X-236430D1*
D15*
X-215135Y-383496D1*
X-951772Y100000D2*
X-1042896D1*
X-1043566Y100669D1*
X-1002088Y-428513D2*
Y-465409D1*
X-1000828Y-466669D1*
X-934912Y-428430D2*
Y-464982D1*
X-932310Y-467584D1*
X-951772Y139370D2*
X-903608D1*
X-884013Y119776D1*
X-886719D1*
X-862783Y-429668D2*
Y-467113D1*
X-864114D1*
X-862783Y-429668D2*
Y-462644D1*
X-786516Y-538912D1*
X-782633D1*
X-951772Y159055D2*
X-843559D1*
X-843021Y158517D1*
X-684281Y-412866D2*
D19*
X-782633D1*
Y-409957D1*
X-827488Y-272825D2*
D17*
Y-292429D1*
X-729509Y-390408D1*
Y-409957D1*
X-782633D1*
D19*
X-695406D1*
D15*
X-683699Y-421663D1*
D19*
Y-458678D1*
D15*
X-686213D1*
X-330144Y-493875D2*
D16*
X-283043Y-540976D1*
D18*
X-215135D1*
X-330510Y-568262D2*
D19*
X-242421D1*
D15*
X-215135Y-540976D1*
X-686213Y-533482D2*
Y-538929D1*
X-589751D1*
Y-525598D1*
X-486176Y-422024D1*
Y-410297D1*
X38421Y239869D2*
X102056D1*
X118135Y255948D1*
X261930Y576303D2*
X216791D1*
X214756Y578339D1*
X-951772Y178740D2*
X-1044051D1*
X-1085505Y137286D1*
Y-94861D1*
X-1154887Y-164243D1*
Y-464518D1*
X-1152707Y-466698D1*
X-1222837Y-467290D2*
Y-186146D1*
X-1119147Y-82455D1*
Y143898D1*
X-1044934Y218110D1*
X-951772D1*
X38421Y342231D2*
X112097D1*
X159066Y389199D1*
Y513837D1*
X170593Y525365D1*
X211832D1*
X214806Y528339D1*
X38421Y316640D2*
X176474D1*
X293844Y434010D1*
Y516499D1*
X303808Y526463D1*
X361210D1*
X363230Y528483D1*
X141694Y-467493D2*
D16*
Y-418276D1*
X156490Y-403480D1*
X202043D1*
Y-466199D1*
X200749Y-467493D1*
X202043Y-403480D2*
X338465D1*
X446692Y-511707D1*
X683503D1*
X687337Y-507873D1*
X38421Y214278D2*
D15*
X103787D1*
X117781Y200285D1*
X412587Y575416D2*
X366249D1*
X363181Y578484D1*
X-130870Y-88871D2*
Y-25493D1*
X-130916Y-25448D1*
X-567083Y269990D2*
X-523017D1*
X-521864Y268836D1*
X-700997Y269282D2*
X-597298Y268836D1*
X-521864D1*
X-597298Y358416D2*
Y268836D1*
X-798354Y278971D2*
X-710686D1*
X-700997Y269282D1*
X-402524Y137507D2*
X-448151D1*
X-459951Y149307D1*
Y310209D1*
X-563328Y413585D1*
X-651266D1*
X-673319Y435638D1*
Y464899D1*
X-777560D1*
X-793325Y480664D1*
X-594092Y464205D2*
X-670517D1*
X-671949Y465636D1*
X-673319Y435638D1*
X38421Y111916D2*
X86780D1*
X128172Y70524D1*
X1178556Y-62328D2*
Y-14659D1*
X1179144D1*
X38421Y86325D2*
X77862D1*
X128156Y36031D1*
X1110512Y-348799D2*
X1148290D1*
X1178556Y-318533D1*
Y-62328D1*
X38421Y188688D2*
X70178D1*
X128563Y130303D1*
X126572D1*
X1107214Y268638D2*
D21*
Y352413D1*
X1099832Y359795D1*
D18*
X261930Y576303D3*
X412587Y575416D3*
X-671109Y570570D3*
X1199034Y559273D3*
X1127211Y558386D3*
X1164453D3*
X-1212777Y543068D3*
X-1140545Y542903D3*
X-1176858Y542646D3*
X-1104837Y542298D3*
X-527604Y433755D3*
X207510Y418605D3*
X-460753Y392495D3*
X-486068Y388497D3*
X303703Y386012D3*
X537462Y376927D3*
X1230722Y365404D3*
X-460087Y363182D3*
X281180Y361987D3*
X-738643Y361262D3*
X1099832Y359795D3*
X469037Y342714D3*
X256155Y334959D3*
X410115Y300899D3*
X1310722Y283896D3*
X1272385Y281741D3*
X1107214Y268638D3*
X-567083Y269990D3*
X118135Y255948D3*
X358797Y249580D3*
X628514Y219852D3*
X692776D3*
X564253Y216996D3*
X-614222Y202682D3*
X117781Y200285D3*
X-886839Y197318D3*
X313180Y186857D3*
X-613135Y169499D3*
X-843021Y158517D3*
X-612235Y134209D3*
X126572Y130303D3*
X-483547Y125005D3*
X-886719Y119776D3*
X-1043566Y100669D3*
X413440Y97448D3*
X285743Y97126D3*
D50*
X-738764Y90539D3*
D18*
X1391113Y78234D3*
X1338198Y75717D3*
X128172Y70524D3*
X-1226021Y69491D3*
X-633000Y53010D3*
X128156Y36031D3*
X-1226021Y30652D3*
D50*
X707654Y625D3*
D18*
X-1227487Y-11850D3*
X470004Y-12916D3*
X1179144Y-14659D3*
X-1011470Y-16923D3*
X-130916Y-25448D3*
X132345Y-44828D3*
X868140Y-47844D3*
X917493D3*
X-1227972Y-49479D3*
X812350Y-49990D3*
X-1011470Y-56031D3*
X156912Y-59434D3*
X470004Y-60041D3*
X1178556Y-62328D3*
X1312915Y-76350D3*
X1354639Y-77948D3*
X132877Y-78815D3*
X622155Y-83176D3*
X282769Y-84944D3*
X158152Y-95421D3*
X470004Y-110022D3*
X132937Y-111799D3*
X-888059Y-116188D3*
X-466789Y-117433D3*
X574362Y-130969D3*
X-792087Y-139403D3*
X-728220D3*
X-698491D3*
X-759052Y-139954D3*
D3*
X1110341Y-399982D3*
X-449270Y-150466D3*
X303676Y-151469D3*
X-411732Y-152469D3*
X-1046606Y-156293D3*
X837026Y-163717D3*
X707206Y-164790D3*
X770507D3*
X533396Y-172909D3*
X-546370Y-182500D3*
X-1081743Y-196942D3*
X328386Y-208490D3*
X-159491Y-208824D3*
X-546370Y-212530D3*
X-1082198Y-228339D3*
X-520463Y-229442D3*
X-546382Y-249896D3*
X-415990Y-260925D3*
X729738Y-261350D3*
X679311Y-262424D3*
X362598Y-263610D3*
X-519252Y-264568D3*
X625667Y-264570D3*
X-159491Y-267345D3*
X-694618Y-277623D3*
X-546382Y-282883D3*
X-416062Y-294970D3*
X-920606Y-304770D3*
X408215Y-320631D3*
X-899769Y-328501D3*
X202064Y-331870D3*
X1262466Y-484724D3*
D50*
X58022Y-382133D3*
X-336311Y-397601D3*
X-684281Y-412866D3*
D18*
X1093602Y-418264D3*
X-1071583Y-427772D3*
X-1002088Y-428513D3*
X-934912Y-428430D3*
X-862783Y-429668D3*
X1115642Y-515936D3*
X217707Y-285301D3*
D50*
X-330144Y-493875D3*
D18*
X-51127Y-450045D3*
X-366479Y-537298D3*
X-330510Y-568262D3*
X877114Y-568457D3*
X925079D3*
X427440Y-569123D3*
X466744Y-569789D3*
X-930906Y-570748D3*
X-1072298Y-571125D3*
X-863594D3*
X-1153524Y-572252D3*
X-1000098D3*
X-1223152Y-572412D3*
X1110512Y-348799D3*
X1263286Y-552493D3*
X13446Y-381815D3*
X56930Y-340241D3*
X-335609Y-362201D3*
X-1264455Y570997D2*
D15*
X-1016895D1*
X-632889D2*
X-451419D1*
X443437D2*
X1264479D1*
X-1269184Y559318D2*
X-1005199D1*
X-555033D2*
X-451442D1*
X439077D2*
X646753D1*
X731331D2*
X1269346D1*
X-1273937Y547638D2*
X-993526D1*
X-555033D2*
X-451488D1*
X1071290D2*
X1274213D1*
X-1278666Y535958D2*
X-987898D1*
X-555033D2*
X-451511D1*
X1074842D2*
X1279104D1*
X-1287201Y524278D2*
X-987898D1*
X-555033D2*
X-451557D1*
X1075142D2*
X1287524D1*
X-1296428Y512598D2*
X-987898D1*
X-555033D2*
X-451580D1*
X1075465D2*
X1296590D1*
X-1306186Y500919D2*
X-964275D1*
X-555033D2*
X-451626D1*
X1075765D2*
X1306186D1*
X-1322657Y489239D2*
X-964275D1*
X-555033D2*
X-451672D1*
X1076065D2*
X1322657D1*
X-1325310Y477559D2*
X-964275D1*
X-555033D2*
X-451696D1*
X1076388D2*
X1325310D1*
X-1307040Y465879D2*
X-964275D1*
X-555033D2*
X-451742D1*
X1075742D2*
X1307040D1*
X-1296590Y454199D2*
X-964275D1*
X-555033D2*
X-451765D1*
X409480D2*
X650351D1*
X727824D2*
X870193D1*
X1064785D2*
X1296590D1*
X-1289923Y442520D2*
X-964275D1*
X-555033D2*
X-451811D1*
X319121D2*
X1289923D1*
X-1285886Y430840D2*
X-711007D1*
X-545321D2*
X-451834D1*
X318914D2*
X1285886D1*
X-1284064Y419160D2*
X-692068D1*
X-533648D2*
X-451880D1*
X314000D2*
X1284064D1*
X-1284225Y407480D2*
X-680419D1*
X-521976D2*
X-451903D1*
X302558D2*
X1284225D1*
X-1286417Y395801D2*
X-705240D1*
X-510280D2*
X-451949D1*
X290886D2*
X1286417D1*
X-1290823Y384121D2*
X-837399D1*
X-498607D2*
X-451972D1*
X279213D2*
X1081085D1*
X1118580D2*
X1206092D1*
X1271477D2*
X1290823D1*
X-1298020Y372441D2*
X-837399D1*
X-486935D2*
X-452018D1*
X267540D2*
X1071442D1*
X1128223D2*
X1200371D1*
X1283358D2*
X1298020D1*
X-1309323Y360761D2*
X-837399D1*
X-475239D2*
X-452042D1*
X255845D2*
X1068674D1*
X1130991D2*
X1199910D1*
X1295030D2*
X1309323D1*
X-1386603Y349081D2*
X-1377926D1*
X-1330270D2*
X-1113851D1*
X-988511D2*
X-837399D1*
X-463567D2*
X-452088D1*
X244172D2*
X635680D1*
X740697D2*
X1070635D1*
X1130529D2*
X1204362D1*
X1306703D2*
X1330270D1*
X1377915D2*
X1386626D1*
X-1386603Y337402D2*
X-1113851D1*
X-988511D2*
X-837399D1*
X232500D2*
X583799D1*
X792577D2*
X1078686D1*
X1130529D2*
X1218780D1*
X1318399D2*
X1386626D1*
X-1386603Y325722D2*
X-1113851D1*
X-988511D2*
X-837399D1*
X220804D2*
X551365D1*
X825012D2*
X1083899D1*
X1130529D2*
X1259565D1*
X1330002D2*
X1386626D1*
X-1350131Y314042D2*
X-1113851D1*
X-988511D2*
X-837399D1*
X209131D2*
X526174D1*
X850202D2*
X1083899D1*
X1130529D2*
X1271238D1*
X1335631D2*
X1386626D1*
X-1297189Y302362D2*
X-1113851D1*
X-988511D2*
X-837399D1*
X197459D2*
X505159D1*
X871218D2*
X1083899D1*
X1130529D2*
X1282910D1*
X1336000D2*
X1386626D1*
X-1283879Y290682D2*
X-1113851D1*
X-988511D2*
X-837399D1*
X88345D2*
X487027D1*
X889349D2*
X1083899D1*
X1130529D2*
X1280326D1*
X1341121D2*
X1386626D1*
X-1279842Y279003D2*
X-1113851D1*
X-988511D2*
X-837399D1*
X88345D2*
X97748D1*
X138519D2*
X471018D1*
X905359D2*
X1077878D1*
X1136550D2*
X1279934D1*
X1341490D2*
X1386626D1*
X-1279335Y267323D2*
X-1113851D1*
X-988511D2*
X-837399D1*
X147077D2*
X456715D1*
X919661D2*
X1076056D1*
X1138373D2*
X1284525D1*
X1336899D2*
X1386626D1*
X-1279335Y255643D2*
X-1113851D1*
X-988511D2*
X-837399D1*
X149315D2*
X443820D1*
X932556D2*
X1078985D1*
X1135443D2*
X1299450D1*
X1321997D2*
X1386626D1*
X-1279335Y243963D2*
X-837399D1*
X-759303D2*
X-745748D1*
X-656211D2*
X-583185D1*
X146823D2*
X432101D1*
X944275D2*
X1088974D1*
X1125454D2*
X1386626D1*
X-1279335Y232283D2*
X-1066007D1*
X-907795D2*
X-485237D1*
X137758D2*
X421421D1*
X954956D2*
X1386603D1*
X-1279335Y220604D2*
X-1077703D1*
X-866733D2*
X-485237D1*
X141033D2*
X411640D1*
X964737D2*
X1386603D1*
X-1279335Y208924D2*
X-1089375D1*
X-857990D2*
X-746787D1*
X-655680D2*
X-567337D1*
X147700D2*
X402689D1*
X973710D2*
X1353615D1*
X-1279335Y197244D2*
X-1101048D1*
X-855660D2*
X-750085D1*
X-652289D2*
X-570936D1*
X148807D2*
X394454D1*
X981923D2*
X1314698D1*
X-1279335Y185564D2*
X-1112744D1*
X-828855D2*
X-750108D1*
X-652312D2*
X-570959D1*
X145093D2*
X386910D1*
X989466D2*
X1275759D1*
X-1279335Y173885D2*
X-1124416D1*
X-816075D2*
X-750131D1*
X-652335D2*
X-571005D1*
X133213D2*
X379990D1*
X996387D2*
X1236819D1*
X-1279335Y162205D2*
X-1136089D1*
X-812061D2*
X-747917D1*
X-654504D2*
X-569021D1*
X131921D2*
X373669D1*
X1002707D2*
X1202655D1*
X-1279335Y150525D2*
X-1143494D1*
X-812914D2*
X-485237D1*
X149915D2*
X367902D1*
X1008475D2*
X1192966D1*
X-1279335Y138845D2*
X-1144417D1*
X-819189D2*
X-482838D1*
X156512D2*
X362642D1*
X1013734D2*
X1189852D1*
X-1279335Y127165D2*
X-1144417D1*
X-856468D2*
X-473057D1*
X157596D2*
X357890D1*
X1018486D2*
X1189760D1*
X-1279335Y115486D2*
X-1144417D1*
X-855845D2*
X-762958D1*
X-714574D2*
X-459100D1*
X153836D2*
X353599D1*
X1022777D2*
X1189760D1*
X-1279335Y103806D2*
X-1144417D1*
X-860135D2*
X-771193D1*
X-706338D2*
X-538179D1*
X141818D2*
X349793D1*
X1026583D2*
X1189760D1*
X-1279335Y92126D2*
X-1144417D1*
X-907795D2*
X-899550D1*
X-873907D2*
X-773846D1*
X-703686D2*
X-549875D1*
X150168D2*
X346402D1*
X1029974D2*
X1189760D1*
X-1279335Y80446D2*
X-1144417D1*
X-629382D2*
X-561547D1*
X157666D2*
X343472D1*
X1032904D2*
X1189760D1*
X-1279335Y68766D2*
X-1144417D1*
X-1060231D2*
X-995741D1*
X-629382D2*
X-573220D1*
X159303D2*
X340935D1*
X1035442D2*
X1189760D1*
X-1279335Y57087D2*
X-1144417D1*
X-1060231D2*
X-995741D1*
X-629382D2*
X-584916D1*
X156166D2*
X338813D1*
X1037564D2*
X1190037D1*
X-1279335Y45407D2*
X-1144417D1*
X-1060231D2*
X-995741D1*
X-629382D2*
X-596588D1*
X157827D2*
X337106D1*
X1039271D2*
X1193451D1*
X-1279335Y33727D2*
X-1144417D1*
X-1060231D2*
X-995741D1*
X-629382D2*
X-608261D1*
X88345D2*
X95210D1*
X159257D2*
X335791D1*
X1040586D2*
X1185677D1*
X-1279335Y22047D2*
X-1144417D1*
X-1060231D2*
X-995741D1*
X88345D2*
X100424D1*
X155889D2*
X334868D1*
X1041509D2*
X1184916D1*
X-1279335Y10367D2*
X-1144417D1*
X-1060231D2*
X-995741D1*
X88345D2*
X111450D1*
X144863D2*
X334314D1*
X1042062D2*
X1161409D1*
X-1279335Y-1312D2*
X-1144417D1*
X-1060231D2*
X-995741D1*
X88345D2*
X334176D1*
X1042201D2*
X1151097D1*
X-1279335Y-12992D2*
X-1144417D1*
X-1060231D2*
X-995741D1*
X88345D2*
X334407D1*
X1041970D2*
X1148006D1*
X-1279335Y-24672D2*
X-1144417D1*
X-1060231D2*
X-995741D1*
X88345D2*
X335029D1*
X1041347D2*
X1149690D1*
X-1279335Y-36352D2*
X-1144417D1*
X-1060231D2*
X-995741D1*
X88345D2*
X336044D1*
X1040332D2*
X1153289D1*
X-1279335Y-48031D2*
X-1144417D1*
X-1060231D2*
X-995741D1*
X88345D2*
X337452D1*
X1038925D2*
X1151005D1*
X-1279335Y-59711D2*
X-1144417D1*
X-1060231D2*
X-995741D1*
X88345D2*
X339274D1*
X1037126D2*
X1147499D1*
X-1279335Y-71391D2*
X-1144417D1*
X-1060231D2*
X-995741D1*
X88345D2*
X341465D1*
X1034911D2*
X1148767D1*
X-1279335Y-83071D2*
X-1155028D1*
X-1060231D2*
X-995741D1*
X-462136D2*
X-453403D1*
X88368D2*
X344095D1*
X1032281D2*
X1153289D1*
X-1279335Y-94751D2*
X-1166701D1*
X-1060231D2*
X-995741D1*
X-473832D2*
X-453426D1*
X88368D2*
X347140D1*
X1029236D2*
X1153289D1*
X-1279335Y-106430D2*
X-1178373D1*
X-1063184D2*
X-995741D1*
X-907795D2*
X-890434D1*
X-485505D2*
X-453472D1*
X88368D2*
X350601D1*
X1025776D2*
X1153289D1*
X-1279335Y-118110D2*
X-1190069D1*
X-1073495D2*
X-995741D1*
X-907795D2*
X-878738D1*
X-497177D2*
X-453495D1*
X88368D2*
X354522D1*
X1021854D2*
X1153289D1*
X-1279335Y-129790D2*
X-1201742D1*
X-1085168D2*
X-1061855D1*
X-1031372D2*
X-995741D1*
X-907795D2*
X-863236D1*
X-512702D2*
X-451326D1*
X85831D2*
X358905D1*
X1017471D2*
X1153289D1*
X-1279335Y-141470D2*
X-1213414D1*
X-1096863D2*
X-1073873D1*
X-907795D2*
X-79072D1*
X-3329D2*
X363773D1*
X1012604D2*
X1153289D1*
X-1279335Y-153150D2*
X-1225087D1*
X-1108536D2*
X-1077634D1*
X-907795D2*
X-859776D1*
X-650075D2*
X-73697D1*
X58448D2*
X369148D1*
X1007229D2*
X1153289D1*
X-1279335Y-164829D2*
X-1236783D1*
X-1120209D2*
X-1076549D1*
X-907795D2*
X-871748D1*
X-638102D2*
X-62139D1*
X70951D2*
X375030D1*
X1001346D2*
X1153289D1*
X-1279335Y-176509D2*
X-1246102D1*
X-1129621D2*
X-1069952D1*
X-615887D2*
X-212176D1*
X-71081D2*
X-54411D1*
X180896D2*
X381489D1*
X994887D2*
X1153289D1*
X-1279335Y-188189D2*
X-1248109D1*
X-1129621D2*
X-995741D1*
X-615887D2*
X-212176D1*
X-71081D2*
X-44354D1*
X180896D2*
X388548D1*
X987828D2*
X1153289D1*
X-1279335Y-199869D2*
X-1248109D1*
X-1129621D2*
X-995741D1*
X-615887D2*
X-212176D1*
X-71081D2*
X-38010D1*
X180896D2*
X396253D1*
X980147D2*
X1153289D1*
X-1279335Y-211549D2*
X-1248109D1*
X-1129621D2*
X-995741D1*
X-615887D2*
X-212176D1*
X-71081D2*
X-15241D1*
X180896D2*
X404627D1*
X971750D2*
X1153289D1*
X-1279335Y-223228D2*
X-1248109D1*
X-1129621D2*
X-995741D1*
X-615887D2*
X-212176D1*
X-71081D2*
X36570D1*
X180896D2*
X413762D1*
X962615D2*
X1153289D1*
X-1279335Y-234908D2*
X-1248109D1*
X-1129621D2*
X-995741D1*
X-778473D2*
X-771862D1*
X-615887D2*
X-416747D1*
X-252029D2*
X-212176D1*
X-71081D2*
X39800D1*
X180896D2*
X423750D1*
X952649D2*
X1153289D1*
X-1279335Y-246588D2*
X-1248109D1*
X-1129621D2*
X-995741D1*
X-907795D2*
X-901188D1*
X-787816D2*
X-771862D1*
X-615887D2*
X-416747D1*
X-252029D2*
X-212176D1*
X-71081D2*
X39800D1*
X180896D2*
X434639D1*
X941738D2*
X1153289D1*
X-1279335Y-258268D2*
X-1248109D1*
X-1129621D2*
X-995741D1*
X-907795D2*
X-888357D1*
X-795867D2*
X-771862D1*
X-615887D2*
X-416747D1*
X-252029D2*
X-212176D1*
X-71081D2*
X39800D1*
X180896D2*
X446611D1*
X929765D2*
X1153289D1*
X-1279335Y-269948D2*
X-1248109D1*
X-1129621D2*
X-1113851D1*
X-988511D2*
X-859107D1*
X-795867D2*
X-771862D1*
X-615887D2*
X-416747D1*
X-252029D2*
X-212176D1*
X-71081D2*
X39800D1*
X180896D2*
X459806D1*
X916570D2*
X1153289D1*
X-1279335Y-281627D2*
X-1248109D1*
X-1129621D2*
X-1113851D1*
X-988511D2*
X-859107D1*
X-795867D2*
X-771862D1*
X-615887D2*
X-416747D1*
X-252029D2*
X-212176D1*
X-71081D2*
X39800D1*
X180896D2*
X474455D1*
X901922D2*
X1153289D1*
X-1279335Y-293307D2*
X-1248109D1*
X-1129621D2*
X-1113851D1*
X-988511D2*
X-859107D1*
X-788577D2*
X-771862D1*
X-615887D2*
X-416747D1*
X-252029D2*
X-212176D1*
X-71081D2*
X39800D1*
X180896D2*
X490880D1*
X885497D2*
X1153289D1*
X-1279335Y-304987D2*
X-1248109D1*
X-1129621D2*
X-1113851D1*
X-988511D2*
X-851517D1*
X-615887D2*
X-416747D1*
X-252029D2*
X-212176D1*
X-71081D2*
X39800D1*
X180896D2*
X509588D1*
X866788D2*
X1153289D1*
X-1279335Y-316667D2*
X-1248109D1*
X-1129621D2*
X-1113851D1*
X-988511D2*
X-841298D1*
X-615887D2*
X-416747D1*
X-252029D2*
X32649D1*
X112036D2*
X531388D1*
X844989D2*
X1042468D1*
X-1279335Y-328346D2*
X-1248109D1*
X-1129621D2*
X-1113851D1*
X-988511D2*
X-829602D1*
X-753536D2*
X-332939D1*
X-97333D2*
X26166D1*
X109845D2*
X557847D1*
X818529D2*
X1035409D1*
X-1279335Y-340026D2*
X-1248109D1*
X-1129621D2*
X-1113851D1*
X-988511D2*
X-817930D1*
X-741841D2*
X-357000D1*
X-97333D2*
X24759D1*
X101979D2*
X592796D1*
X783581D2*
X1035179D1*
X-1279335Y-351706D2*
X-1248109D1*
X-1129621D2*
X-1113851D1*
X-988511D2*
X-806257D1*
X-730168D2*
X-364889D1*
X91067D2*
X658818D1*
X717559D2*
X1035202D1*
X-1280811Y-363386D2*
X-1248109D1*
X-1129621D2*
X-1113851D1*
X-988511D2*
X-794561D1*
X-718495D2*
X-366758D1*
X91067D2*
X1035225D1*
X-1288216Y-375066D2*
X-1248109D1*
X-1129621D2*
X-826027D1*
X-707261D2*
X-633129D1*
X-546359D2*
X-529551D1*
X-442782D2*
X-363897D1*
X94297D2*
X140655D1*
X354301D2*
X1035225D1*
X-1289623Y-386745D2*
X-1248109D1*
X-1129621D2*
X-826027D1*
X-661424D2*
X-633129D1*
X-546359D2*
X-529551D1*
X-442782D2*
X-369641D1*
X94712D2*
X126837D1*
X368119D2*
X1035248D1*
X-1285725Y-398425D2*
X-1248109D1*
X-1129621D2*
X-1078995D1*
X-1064176D2*
X-826027D1*
X-652381D2*
X-633129D1*
X-546359D2*
X-529551D1*
X-442782D2*
X-371417D1*
X91090D2*
X115464D1*
X379791D2*
X1035271D1*
X-1284017Y-410105D2*
X-1248109D1*
X-1129621D2*
X-1097011D1*
X-1046159D2*
X-1026952D1*
X-977208D2*
X-959846D1*
X-909986D2*
X-886720D1*
X-838866D2*
X-826027D1*
X-649267D2*
X-633129D1*
X-546359D2*
X-529551D1*
X-442782D2*
X-369041D1*
X81609D2*
X109605D1*
X391487D2*
X1035271D1*
X-1284294Y-421785D2*
X-1248109D1*
X-1129621D2*
X-1102155D1*
X-1041015D2*
X-1032512D1*
X-971671D2*
X-965362D1*
X-904473D2*
X-892902D1*
X-832661D2*
X-826027D1*
X-546359D2*
X-529551D1*
X-442782D2*
X-361290D1*
X-97333D2*
X-9566D1*
X56741D2*
X108544D1*
X403160D2*
X1035294D1*
X-1286601Y-433465D2*
X-1261881D1*
X-546359D2*
X-532873D1*
X-365111D2*
X-332939D1*
X-97333D2*
X-9566D1*
X56741D2*
X108544D1*
X414832D2*
X1035317D1*
X-1291169Y-445144D2*
X-1261881D1*
X-365111D2*
X-330725D1*
X-100862D2*
X-9566D1*
X56741D2*
X108544D1*
X235199D2*
X333738D1*
X426528D2*
X1035317D1*
X-1298551Y-456824D2*
X-1261881D1*
X-825048D2*
X-735114D1*
X-637318D2*
X-556242D1*
X-485712D2*
X-443206D1*
X-365111D2*
X-330748D1*
X-100908D2*
X-9566D1*
X56741D2*
X108544D1*
X235199D2*
X345410D1*
X-1310177Y-468504D2*
X-1261881D1*
X-821657D2*
X-735114D1*
X-637318D2*
X-567914D1*
X-497408D2*
X-443206D1*
X-365111D2*
X-353862D1*
X-100977D2*
X-9566D1*
X56741D2*
X108544D1*
X235106D2*
X357106D1*
X-1332346Y-480184D2*
X-1261881D1*
X-809985D2*
X-735114D1*
X-637318D2*
X-579587D1*
X-509080D2*
X-443206D1*
X-101047D2*
X-78472D1*
X56741D2*
X108544D1*
X302789D2*
X361097D1*
X-1318966Y-491864D2*
X-1261881D1*
X-798312D2*
X-735114D1*
X-637318D2*
X-591282D1*
X-520753D2*
X-443206D1*
X-97333D2*
X-78472D1*
X56741D2*
X108544D1*
X302789D2*
X360981D1*
X-1303603Y-503543D2*
X-1261881D1*
X-97333D2*
X-78472D1*
X56741D2*
X108544D1*
X302789D2*
X360866D1*
X-1294352Y-515223D2*
X-1261881D1*
X-544121D2*
X-529551D1*
X-97333D2*
X-78472D1*
X7513D2*
X35163D1*
X71044D2*
X153273D1*
X189154D2*
X216804D1*
X302789D2*
X360728D1*
X-1285102Y-526903D2*
X-1261881D1*
X-546359D2*
X-529551D1*
X-97333D2*
X-78472D1*
X7513D2*
X21299D1*
X84908D2*
X139409D1*
X203018D2*
X216804D1*
X302789D2*
X360612D1*
X-1277604Y-538583D2*
X-1261881D1*
X-546359D2*
X-529551D1*
X-97333D2*
X-78472D1*
X7513D2*
X15579D1*
X90652D2*
X133688D1*
X208762D2*
X216832D1*
X302789D2*
X360520D1*
X-1272852Y-550262D2*
X-1261881D1*
X-546359D2*
X-529551D1*
X-97333D2*
X14079D1*
X92151D2*
X132189D1*
X210262D2*
X365526D1*
X-1268123Y-561942D2*
X-1261890D1*
X-546359D2*
X-529551D1*
X-97333D2*
X-78472D1*
X7513D2*
X16291D1*
X89960D2*
X134380D1*
X208070D2*
X216801D1*
X302789D2*
X649567D1*
X725241D2*
X1035478D1*
X-1183785Y-573622D2*
X-971357D1*
X-546359D2*
X-529551D1*
X-97333D2*
X-78472D1*
X7513D2*
X22983D1*
X83224D2*
X141093D1*
X201334D2*
X216804D1*
X302789D2*
X1035502D1*
X-556218Y491290D2*
Y436618D1*
X-552389Y435054D1*
X-549166Y433078D1*
X-546286Y430617D1*
X-450948Y335280D1*
X-450161Y578939D1*
X-449613Y582677D1*
X-643683D1*
X-642577Y579840D1*
X-641478Y575263D1*
X-641181Y572399D1*
X-634075Y572408D1*
X-634098Y492723D1*
X-631966Y495228D1*
Y570976D1*
X-556218D1*
X-556222Y491291D1*
X-631966Y488285D2*
Y495228D1*
X-760480Y254891D2*
Y239129D1*
X-836228D1*
Y385743D1*
X-760480D1*
Y381835D1*
X-758126Y384075D1*
X-754318Y386842D1*
X-750124Y388979D1*
X-745646Y390434D1*
X-740997Y391170D1*
X-736289D1*
X-731640Y390434D1*
X-727163Y388979D1*
X-722968Y386842D1*
X-720785Y385356D1*
X-704069Y385503D1*
Y396290D1*
X-668060D1*
X-691116Y419395D1*
X-693438Y422379D1*
X-695267Y425697D1*
X-709823Y425794D1*
Y440811D1*
X-753482Y440804D1*
X-753483Y434916D1*
X-963089D1*
Y503812D1*
X-986711Y503813D1*
Y543422D1*
X-988253Y543951D1*
X-989749Y545038D1*
X-1027393Y582682D1*
X-1264046Y582676D1*
X-1265163Y572307D1*
X-1280459Y534478D1*
X-1284775Y528823D1*
X-1306309Y501729D1*
X-1335704Y480827D1*
X-1327678Y478066D1*
X-1322756Y475797D1*
X-1318027Y473148D1*
X-1313520Y470137D1*
X-1309264Y466781D1*
X-1305284Y463102D1*
X-1301605Y459122D1*
X-1298249Y454865D1*
X-1295238Y450359D1*
X-1292589Y445630D1*
X-1290320Y440708D1*
X-1288444Y435622D1*
X-1286973Y430406D1*
X-1285915Y425090D1*
X-1285278Y419707D1*
X-1285066Y414291D1*
X-1285278Y408875D1*
X-1285915Y403493D1*
X-1286973Y398177D1*
X-1288444Y392960D1*
X-1290320Y387875D1*
X-1292589Y382953D1*
X-1295238Y378224D1*
X-1298249Y373717D1*
X-1301605Y369461D1*
X-1305284Y365481D1*
X-1309264Y361801D1*
X-1313520Y358446D1*
X-1318027Y355435D1*
X-1322756Y352786D1*
X-1327678Y350517D1*
X-1332763Y348641D1*
X-1337980Y347170D1*
X-1343296Y346112D1*
X-1348679Y345475D1*
X-1354094Y345262D1*
X-1359510Y345475D1*
X-1364893Y346112D1*
X-1370209Y347170D1*
X-1375426Y348641D1*
X-1380511Y350517D1*
X-1387779Y354100D1*
X-1387795Y321400D1*
X-1303305Y304280D1*
X-1294880Y300929D1*
X-1291550Y298182D1*
X-1286958Y293991D1*
X-1282260Y285598D1*
X-1281424Y281364D1*
X-1280512Y275674D1*
X-1280585Y-355256D1*
X-1282203Y-364178D1*
X-1284238Y-367986D1*
X-1287437Y-373317D1*
X-1294352Y-379322D1*
X-1290320Y-387875D1*
X-1288444Y-392960D1*
X-1286973Y-398177D1*
X-1285915Y-403493D1*
X-1285278Y-408875D1*
X-1285066Y-414291D1*
X-1285278Y-419707D1*
X-1285915Y-425090D1*
X-1286973Y-430406D1*
X-1288444Y-435622D1*
X-1290320Y-440708D1*
X-1292589Y-445630D1*
X-1295238Y-450359D1*
X-1298249Y-454865D1*
X-1301605Y-459122D1*
X-1305284Y-463102D1*
X-1309264Y-466781D1*
X-1313520Y-470137D1*
X-1318027Y-473148D1*
X-1322756Y-475797D1*
X-1327678Y-478066D1*
X-1332763Y-479942D1*
X-1335759Y-480787D1*
X-1306181Y-501851D1*
X-1280836Y-533829D1*
X-1278049Y-540375D1*
X-1265121Y-572478D1*
X-1264043Y-582700D1*
X-356823Y-582678D1*
X-358227Y-579743D1*
X-359682Y-575266D1*
X-360418Y-570616D1*
X-360449Y-566690D1*
X-364125Y-567205D1*
X-366286Y-567290D1*
X-366281Y-574974D1*
X-442029D1*
Y-563324D1*
X-443962Y-563346D1*
X-443971Y-575551D1*
X-528380D1*
Y-502953D1*
X-443971D1*
Y-515156D1*
X-442029Y-510013D1*
Y-428360D1*
X-366281D1*
Y-507295D1*
X-361786Y-507667D1*
X-361091Y-507805D1*
X-362420Y-504362D1*
X-363664Y-499184D1*
X-364081Y-493875D1*
X-363664Y-488566D1*
X-362420Y-483388D1*
X-360382Y-478468D1*
X-357600Y-473928D1*
X-354141Y-469878D1*
X-350092Y-466420D1*
X-345551Y-463637D1*
X-340631Y-461599D1*
X-335453Y-460356D1*
X-330144Y-459938D1*
X-329572Y-459961D1*
X-329522Y-441053D1*
X-331749Y-441055D1*
Y-431251D1*
X-336311Y-431538D1*
X-341620Y-431120D1*
X-346798Y-429877D1*
X-351718Y-427839D1*
X-356259Y-425057D1*
X-360308Y-421598D1*
X-363767Y-417549D1*
X-366549Y-413008D1*
X-368587Y-408088D1*
X-369830Y-402910D1*
X-370248Y-397601D1*
X-369830Y-392292D1*
X-368587Y-387114D1*
X-366549Y-382194D1*
X-363767Y-377653D1*
X-362339Y-375821D1*
X-364141Y-371471D1*
X-365240Y-366894D1*
X-365609Y-362201D1*
X-365240Y-357508D1*
X-364141Y-352930D1*
X-362339Y-348581D1*
X-359879Y-344567D1*
X-356822Y-340988D1*
X-353242Y-337930D1*
X-349229Y-335471D1*
X-344879Y-333669D1*
X-340302Y-332570D1*
X-335609Y-332201D1*
X-331747Y-332472D1*
X-331749Y-325937D1*
X-320607D1*
X-324068Y-324822D1*
X-415564D1*
Y-229389D1*
X-253202D1*
Y-324822D1*
X-264575D1*
X-260883Y-325937D1*
X-98521D1*
Y-346214D1*
X23595Y-346227D1*
X25949Y-340794D1*
X26047Y-335186D1*
X26832Y-330231D1*
X28382Y-325460D1*
X30660Y-320991D1*
X33608Y-316932D1*
X43125Y-307276D1*
X40976Y-307261D1*
Y-226453D1*
X26132Y-211603D1*
X-14586Y-211512D1*
X-19540Y-210727D1*
X-24311Y-209177D1*
X-28781Y-206899D1*
X-32839Y-203951D1*
X-36387Y-200404D1*
X-39335Y-196345D1*
X-41613Y-191876D1*
X-42734Y-188624D1*
X-49930Y-181310D1*
X-52515Y-177751D1*
X-54512Y-173832D1*
X-55762Y-170038D1*
X-72420Y-153269D1*
X-74642Y-150210D1*
X-76359Y-146841D1*
X-77527Y-143245D1*
X-78119Y-139504D1*
X-78627Y-138913D1*
X-435543Y-139295D1*
X-438362Y-138852D1*
X-441078Y-137973D1*
X-443623Y-136680D1*
X-445934Y-135006D1*
X-447954Y-132990D1*
X-449635Y-130683D1*
X-450934Y-128141D1*
X-451819Y-125428D1*
X-452269Y-122609D1*
X-452202Y-79767D1*
X-452178Y-71947D1*
X-505500Y-125142D1*
X-508559Y-127364D1*
X-511928Y-129081D1*
X-515524Y-130249D1*
X-519258Y-130841D1*
X-550676Y-130915D1*
X-856669Y-130840D1*
X-860403Y-130249D1*
X-863999Y-129081D1*
X-867368Y-127364D1*
X-870426Y-125142D1*
X-894408Y-101266D1*
X-908955Y-101260D1*
X-908976Y-171174D1*
X-874977Y-171181D1*
X-872729Y-167408D1*
X-870274Y-164533D1*
X-859623Y-153988D1*
X-856564Y-151766D1*
X-853196Y-150049D1*
X-849600Y-148881D1*
X-845866Y-148289D1*
X-814448Y-148215D1*
X-663980Y-148289D1*
X-660245Y-148881D1*
X-656649Y-150049D1*
X-653281Y-151766D1*
X-650222Y-153988D1*
X-638577Y-165528D1*
X-636121Y-168403D1*
X-635067Y-169983D1*
X-633770Y-170169D1*
X-617077D1*
Y-316784D1*
X-692825D1*
Y-196405D1*
X-694943Y-200403D1*
Y-317490D1*
X-765565D1*
X-709691Y-373481D1*
X-707287Y-376790D1*
X-705427Y-380442D1*
X-699955Y-381925D1*
X-698231D1*
X-694768Y-380590D1*
X-689590Y-379347D1*
X-684281Y-378929D1*
X-678972Y-379347D1*
X-673794Y-380590D1*
X-668874Y-382628D1*
X-664333Y-385411D1*
X-660284Y-388869D1*
X-656825Y-392918D1*
X-654043Y-397459D1*
X-652005Y-402379D1*
X-650762Y-407557D1*
X-650344Y-412866D1*
X-650424Y-414894D1*
X-638496Y-414899D1*
Y-514824D1*
X-631933Y-514835D1*
X-631955Y-502630D1*
X-600836D1*
X-528377Y-430150D1*
X-528380Y-373998D1*
X-443971D1*
Y-446596D1*
X-476659D1*
X-547549Y-517472D1*
X-547546Y-575229D1*
X-631955D1*
Y-563025D1*
X-638494Y-563024D1*
X-638496Y-577261D1*
X-733929D1*
Y-440889D1*
X-740406Y-440898D1*
X-740428Y-446256D1*
X-824837D1*
Y-373658D1*
X-783106D1*
X-847307Y-309356D1*
X-849711Y-306047D1*
X-850714Y-304254D1*
X-857921Y-303771D1*
Y-261486D1*
X-877024Y-261419D1*
X-880759Y-260828D1*
X-884354Y-259659D1*
X-887723Y-257943D1*
X-890782Y-255721D1*
X-907553Y-239054D1*
X-908976Y-240079D1*
Y-258740D1*
X-994567D1*
Y-180192D1*
X-1028652Y-180314D1*
X-1032987Y-183023D1*
X-1037336Y-184824D1*
X-1041913Y-185923D1*
X-1046606Y-186293D1*
X-1051299Y-185923D1*
X-1055877Y-184824D1*
X-1060226Y-183023D1*
X-1064240Y-180563D1*
X-1067820Y-177506D1*
X-1070877Y-173926D1*
X-1073336Y-169912D1*
X-1075138Y-165563D1*
X-1076237Y-160986D1*
X-1076606Y-156293D1*
X-1076237Y-151600D1*
X-1075138Y-147022D1*
X-1073336Y-142673D1*
X-1070877Y-138659D1*
X-1067820Y-135079D1*
X-1064240Y-132022D1*
X-1060226Y-129562D1*
X-1055877Y-127761D1*
X-1051299Y-126662D1*
X-1046606Y-126293D1*
X-1041913Y-126662D1*
X-1037336Y-127761D1*
X-1032987Y-129562D1*
X-1028835Y-132130D1*
X-994547Y-131985D1*
X-994544Y65039D1*
X-994567Y75913D1*
X-1026629Y75905D1*
X-1029946Y73939D1*
X-1034295Y72138D1*
X-1038873Y71039D1*
X-1043566Y70669D1*
X-1048259Y71039D1*
X-1052836Y72138D1*
X-1057185Y73939D1*
X-1061409Y76564D1*
X-1061485Y-96751D1*
X-1062076Y-100486D1*
X-1063245Y-104082D1*
X-1064961Y-107450D1*
X-1067184Y-110509D1*
X-1089347Y-132778D1*
X-1130795Y-174226D1*
X-1130793Y-426877D1*
X-1114833Y-426856D1*
Y-573470D1*
X-1184963Y-573510D1*
Y-574062D1*
X-1260711D1*
Y-427448D1*
X-1246939D1*
X-1246858Y-184255D1*
X-1246266Y-180521D1*
X-1245098Y-176925D1*
X-1243381Y-173556D1*
X-1241159Y-170497D1*
X-1218996Y-148229D1*
X-1143227Y-72461D1*
X-1143167Y145788D1*
X-1142576Y149522D1*
X-1141407Y153118D1*
X-1139691Y156487D1*
X-1137469Y159546D1*
X-1115305Y181814D1*
X-1060583Y236432D1*
X-1057524Y238654D1*
X-1054155Y240371D1*
X-1050559Y241539D1*
X-1046825Y242130D1*
X-1015407Y242205D1*
X-908976D1*
Y222527D1*
X-903120Y222520D1*
X-898319Y225034D1*
X-893842Y226489D1*
X-889192Y227225D1*
X-884485D1*
X-879835Y226489D1*
X-875358Y225034D1*
X-871164Y222897D1*
X-867355Y220130D1*
X-864026Y216801D1*
X-861259Y212993D1*
X-859122Y208798D1*
X-857667Y204321D1*
X-856931Y199671D1*
Y194964D1*
X-857667Y190314D1*
X-859122Y185837D1*
X-860419Y183144D1*
X-854502Y186233D1*
X-850024Y187688D1*
X-845375Y188425D1*
X-840667D1*
X-836018Y187688D1*
X-831540Y186233D1*
X-827346Y184096D1*
X-823538Y181329D1*
X-820209Y178001D1*
X-817442Y174192D1*
X-815305Y169998D1*
X-813850Y165520D1*
X-813113Y160871D1*
Y156163D1*
X-813850Y151514D1*
X-815305Y147037D1*
X-817442Y142842D1*
X-820209Y139034D1*
X-823538Y135705D1*
X-827346Y132938D1*
X-831540Y130801D1*
X-836018Y129346D1*
X-840667Y128610D1*
X-845375D1*
X-850024Y129346D1*
X-854502Y130801D1*
X-858696Y132938D1*
X-860310Y134017D1*
X-858187Y129046D1*
X-857089Y124469D1*
X-856719Y119776D1*
X-857089Y115083D1*
X-858187Y110505D1*
X-859989Y106156D1*
X-862449Y102142D1*
X-865506Y98562D1*
X-869086Y95505D1*
X-873099Y93045D1*
X-877449Y91244D1*
X-882026Y90145D1*
X-886719Y89776D1*
X-891412Y90145D1*
X-895990Y91244D1*
X-900339Y93045D1*
X-904353Y95505D1*
X-907932Y98562D1*
X-908975Y99691D1*
X-908976Y84716D1*
X-777167Y84725D1*
X-777180Y88471D1*
X-772635D1*
X-772596Y93202D1*
X-771763Y98462D1*
X-770117Y103527D1*
X-767700Y108271D1*
X-764570Y112580D1*
X-760804Y116345D1*
X-756496Y119475D1*
X-751751Y121893D1*
X-746686Y123539D1*
X-741426Y124372D1*
X-736101D1*
X-730841Y123539D1*
X-725777Y121893D1*
X-721032Y119475D1*
X-716723Y116345D1*
X-712958Y112580D1*
X-709828Y108271D1*
X-707410Y103527D1*
X-705764Y98462D1*
X-704931Y93202D1*
X-704908Y88470D1*
X-630566Y88471D1*
Y26329D1*
X-614473Y26327D1*
X-536063Y104647D1*
X-533004Y106869D1*
X-529635Y108586D1*
X-526039Y109754D1*
X-522305Y110346D1*
X-490887Y110420D1*
X-451648D1*
X-451920Y113709D1*
X-455597Y114591D1*
X-459090Y116038D1*
X-462313Y118014D1*
X-465188Y120469D1*
X-478273Y133659D1*
X-480495Y136718D1*
X-482212Y140086D1*
X-483380Y143682D1*
X-483972Y147417D1*
X-484046Y154267D1*
X-487007Y153023D1*
X-489784Y152364D1*
X-492635Y152147D1*
X-553111Y152355D1*
X-555929Y152809D1*
X-558641Y153697D1*
X-561181Y155000D1*
X-563485Y156683D1*
X-565499Y158706D1*
X-567170Y161020D1*
X-568460Y163566D1*
X-569335Y166283D1*
X-569774Y169103D1*
X-569757Y198091D1*
X-569526Y200935D1*
X-568853Y203709D1*
X-567754Y206343D1*
X-566256Y208773D1*
X-564397Y210939D1*
X-562222Y212787D1*
X-559785Y214272D1*
X-557145Y215358D1*
X-554368Y216017D1*
X-551517Y216233D1*
X-491042Y216026D1*
X-488224Y215572D1*
X-485512Y214683D1*
X-484211Y214079D1*
X-484046Y214268D1*
X-484154Y238754D1*
X-486794Y237669D1*
X-489571Y237009D1*
X-492417Y236793D1*
X-552898Y237000D1*
X-555716Y237454D1*
X-558428Y238343D1*
X-562390Y240359D1*
X-567083Y239990D1*
X-571776Y240359D1*
X-576353Y241458D1*
X-580702Y243259D1*
X-583255Y244743D1*
X-656618Y244996D1*
X-658676Y242534D1*
X-660851Y240686D1*
X-663289Y239200D1*
X-665928Y238115D1*
X-668705Y237456D1*
X-671557Y237239D1*
X-732032Y237447D1*
X-734850Y237900D1*
X-737562Y238789D1*
X-740102Y240091D1*
X-742407Y241775D1*
X-744420Y243798D1*
X-746092Y246112D1*
X-747381Y248658D1*
X-748256Y251375D1*
X-748696Y254200D1*
X-752025Y254877D1*
X-760491D1*
X-209824Y-176395D2*
X-72265D1*
Y-307261D1*
X-211005D1*
Y-176395D1*
X-209824D1*
X-1038701Y-573264D2*
X-1110762D1*
Y-426650D1*
X-1101558D1*
X-1101213Y-423079D1*
X-1100114Y-418501D1*
X-1098313Y-414152D1*
X-1095853Y-410138D1*
X-1092796Y-406558D1*
X-1089216Y-403501D1*
X-1085202Y-401041D1*
X-1080853Y-399240D1*
X-1076276Y-398141D1*
X-1071583Y-397772D1*
X-1066890Y-398141D1*
X-1062312Y-399240D1*
X-1057963Y-401041D1*
X-1053949Y-403501D1*
X-1050369Y-406558D1*
X-1047312Y-410138D1*
X-1044852Y-414152D1*
X-1043051Y-418501D1*
X-1041952Y-423079D1*
X-1041627Y-426641D1*
X-1035014Y-426650D1*
Y-426811D1*
X-1032035Y-426827D1*
X-1031719Y-423820D1*
X-1030620Y-419243D1*
X-1028818Y-414893D1*
X-1026358Y-410880D1*
X-1023301Y-407300D1*
X-1019721Y-404243D1*
X-1015708Y-401783D1*
X-1011358Y-399981D1*
X-1006781Y-398882D1*
X-1002088Y-398513D1*
X-997395Y-398882D1*
X-992817Y-399981D1*
X-988468Y-401783D1*
X-984454Y-404243D1*
X-980875Y-407300D1*
X-977817Y-410880D1*
X-975358Y-414893D1*
X-973556Y-419243D1*
X-972457Y-423820D1*
X-972154Y-426831D1*
X-964880Y-426827D1*
X-964083Y-421427D1*
X-962628Y-416950D1*
X-960491Y-412755D1*
X-957724Y-408947D1*
X-954396Y-405618D1*
X-950587Y-402851D1*
X-946393Y-400714D1*
X-941915Y-399259D1*
X-937266Y-398523D1*
X-932558D1*
X-927909Y-399259D1*
X-923432Y-400714D1*
X-919237Y-402851D1*
X-915429Y-405618D1*
X-912100Y-408947D1*
X-909333Y-412755D1*
X-907196Y-416950D1*
X-905741Y-421427D1*
X-905005Y-426077D1*
X-904939Y-427741D1*
X-901988Y-427271D1*
X-892691D1*
X-891955Y-422665D1*
X-890500Y-418187D1*
X-888363Y-413993D1*
X-885596Y-410185D1*
X-882267Y-406856D1*
X-878458Y-404089D1*
X-874264Y-401952D1*
X-869787Y-400497D1*
X-865137Y-399760D1*
X-860430D1*
X-855780Y-400497D1*
X-851303Y-401952D1*
X-847109Y-404089D1*
X-843300Y-406856D1*
X-839971Y-410185D1*
X-837204Y-413993D1*
X-835067Y-418187D1*
X-833612Y-422665D1*
X-832881Y-427269D1*
X-826240Y-427271D1*
Y-465126D1*
X-788736Y-502617D1*
X-740428Y-502613D1*
Y-575212D1*
X-824837D1*
Y-534680D1*
X-826240Y-534357D1*
Y-573885D1*
X-894435D1*
X-894436Y-574356D1*
X-970184D1*
Y-573438D1*
X-1038702Y-573441D1*
Y-573261D1*
X-770691Y-312364D2*
X-770710Y-226448D1*
X-771287D1*
X-771307Y-233298D1*
X-779035D1*
X-780272Y-236192D1*
X-782247Y-239416D1*
X-784708Y-242296D1*
X-796854Y-254441D1*
X-797055Y-265503D1*
Y-286011D1*
X-770677Y-312381D1*
X1246542Y339922D2*
X1242202Y337688D1*
X1237725Y336233D1*
X1233076Y335497D1*
X1228368D1*
X1223718Y336233D1*
X1219241Y337688D1*
X1215047Y339825D1*
X1211238Y342592D1*
X1207910Y345921D1*
X1205143Y349729D1*
X1203005Y353924D1*
X1201551Y358401D1*
X1200814Y363050D1*
Y367758D1*
X1201551Y372408D1*
X1203005Y376885D1*
X1205143Y381079D1*
X1207910Y384888D1*
X1211238Y388216D1*
X1215047Y390983D1*
X1219241Y393121D1*
X1223718Y394575D1*
X1228368Y395312D1*
X1233076D1*
X1237725Y394575D1*
X1242202Y393121D1*
X1246397Y390983D1*
X1248579Y389498D1*
X1257024Y389424D1*
X1260759Y388833D1*
X1264354Y387665D1*
X1267723Y385948D1*
X1270782Y383726D1*
X1293050Y361562D1*
X1329043Y325464D1*
X1331266Y322406D1*
X1332982Y319037D1*
X1334151Y315441D1*
X1334742Y311707D1*
X1334816Y301765D1*
X1337452Y297516D1*
X1339253Y293167D1*
X1340352Y288589D1*
X1340722Y283896D1*
X1340352Y279203D1*
X1339253Y274626D1*
X1337452Y270277D1*
X1334992Y266263D1*
X1331935Y262683D1*
X1328355Y259626D1*
X1324341Y257166D1*
X1319992Y255365D1*
X1315415Y254266D1*
X1310722Y253896D1*
X1306029Y254266D1*
X1301451Y255365D1*
X1297102Y257166D1*
X1293088Y259626D1*
X1289509Y262683D1*
X1286451Y266263D1*
X1283992Y270277D1*
X1282190Y274626D1*
X1281091Y279203D1*
X1280722Y283896D1*
X1281091Y288589D1*
X1282190Y293167D1*
X1283992Y297516D1*
X1285843Y300619D1*
X1246559Y339904D1*
X1129740Y357442D2*
X1129271Y354137D1*
X1129340Y316980D1*
Y288906D1*
X1131484Y286271D1*
X1133944Y282258D1*
X1135746Y277908D1*
X1136845Y273331D1*
X1137214Y268638D1*
X1136845Y263945D1*
X1135746Y259367D1*
X1133944Y255018D1*
X1131484Y251004D1*
X1128427Y247425D1*
X1124847Y244367D1*
X1120834Y241908D1*
X1116484Y240106D1*
X1111907Y239007D1*
X1107214Y238638D1*
X1102521Y239007D1*
X1097943Y240106D1*
X1093594Y241908D1*
X1089580Y244367D1*
X1086001Y247425D1*
X1082943Y251004D1*
X1080484Y255018D1*
X1078682Y259367D1*
X1077583Y263945D1*
X1077214Y268638D1*
X1077583Y273331D1*
X1078682Y277908D1*
X1080484Y282258D1*
X1082943Y286271D1*
X1085083Y288858D1*
X1085088Y333668D1*
X1082198Y335525D1*
X1078619Y338582D1*
X1075562Y342162D1*
X1073102Y346176D1*
X1071300Y350525D1*
X1070201Y355102D1*
X1069832Y359795D1*
X1070201Y364488D1*
X1071300Y369066D1*
X1073102Y373415D1*
X1075562Y377429D1*
X1078619Y381008D1*
X1082198Y384066D1*
X1086212Y386525D1*
X1090562Y388327D1*
X1095139Y389426D1*
X1099832Y389795D1*
X1104525Y389426D1*
X1109103Y388327D1*
X1113452Y386525D1*
X1117466Y384066D1*
X1121045Y381008D1*
X1124103Y377429D1*
X1126562Y373415D1*
X1128364Y369066D1*
X1129463Y364488D1*
X1129832Y359795D1*
X1129740Y357442D1*
X722720Y452834D2*
X703395Y448514D1*
X700727Y448325D1*
X675701Y448423D1*
X673060Y448833D1*
X653775Y453325D1*
X651127Y454392D1*
X649870Y455081D1*
X643679Y455643D1*
X414831Y457149D1*
X412015Y457614D1*
X410136Y458178D1*
X408730Y454932D1*
X406722Y452019D1*
X404189Y449550D1*
X401225Y447618D1*
X397943Y446296D1*
X394468Y445635D1*
X382210Y445550D1*
X332604Y445538D1*
X329113Y446107D1*
X325797Y447340D1*
X322783Y449192D1*
X320184Y451593D1*
X318097Y454455D1*
X317938Y445633D1*
X317864Y432120D1*
X317273Y428386D1*
X316104Y424790D1*
X314388Y421421D1*
X312165Y418362D1*
X290002Y396094D1*
X192122Y298319D1*
X189063Y296096D1*
X185694Y294380D1*
X182099Y293212D1*
X178364Y292620D1*
X146946Y292546D1*
X87176D1*
X87161Y263986D1*
X89603Y265218D1*
X91405Y269567D1*
X93865Y273581D1*
X96922Y277161D1*
X100502Y280218D1*
X104515Y282678D1*
X108865Y284479D1*
X113442Y285578D1*
X118135Y285948D1*
X122828Y285578D1*
X127406Y284479D1*
X131755Y282678D1*
X135769Y280218D1*
X139348Y277161D1*
X142406Y273581D1*
X144865Y269567D1*
X146667Y265218D1*
X147766Y260641D1*
X148135Y255948D1*
X147766Y251254D1*
X146667Y246677D1*
X144865Y242328D1*
X142406Y238314D1*
X139348Y234734D1*
X135769Y231677D1*
X131755Y229217D1*
X129261Y228001D1*
X133456Y225864D1*
X137264Y223097D1*
X140593Y219768D1*
X143360Y215960D1*
X145497Y211765D1*
X146952Y207288D1*
X147688Y202639D1*
Y197931D1*
X146952Y193281D1*
X145497Y188804D1*
X143360Y184610D1*
X140593Y180801D1*
X137264Y177473D1*
X133456Y174706D1*
X129261Y172568D1*
X124784Y171114D1*
X122300Y170634D1*
X133576Y159474D1*
X138053Y158020D1*
X142247Y155882D1*
X146056Y153115D1*
X149384Y149787D1*
X152151Y145978D1*
X154289Y141784D1*
X155743Y137307D1*
X156480Y132657D1*
Y127949D1*
X155743Y123300D1*
X154289Y118823D1*
X152151Y114628D1*
X149384Y110820D1*
X146056Y107491D1*
X142247Y104724D1*
X138053Y102587D1*
X133576Y101132D1*
X131960Y100811D1*
X132865Y100154D1*
X137442Y99055D1*
X141792Y97254D1*
X145805Y94794D1*
X149385Y91737D1*
X152442Y88157D1*
X154902Y84143D1*
X156704Y79794D1*
X157803Y75217D1*
X158172Y70524D1*
X157803Y65831D1*
X156704Y61253D1*
X154902Y56904D1*
X152703Y53280D1*
X154886Y49651D1*
X156688Y45302D1*
X157787Y40725D1*
X158156Y36031D1*
X157787Y31338D1*
X156688Y26761D1*
X154886Y22412D1*
X152427Y18398D1*
X149369Y14818D1*
X145790Y11761D1*
X141776Y9301D1*
X137427Y7500D1*
X132849Y6401D1*
X128156Y6031D1*
X123463Y6401D1*
X118886Y7500D1*
X114536Y9301D1*
X110523Y11761D1*
X106943Y14818D1*
X103886Y18398D1*
X101426Y22412D1*
X99624Y26761D1*
X98492Y31622D1*
X87157Y42956D1*
X87121Y-121970D1*
X86675Y-124789D1*
X85793Y-127503D1*
X84497Y-130046D1*
X82820Y-132356D1*
X80802Y-134374D1*
X78493Y-136052D1*
X75950Y-137348D1*
X73235Y-138230D1*
X70410Y-138676D1*
X-4508Y-138823D1*
X-4520Y-147534D1*
X11545Y-147673D1*
X41889Y-147772D1*
X46843Y-148556D1*
X51614Y-150107D1*
X56084Y-152384D1*
X60143Y-155333D1*
X74513Y-169564D1*
X81323Y-176395D1*
X179717D1*
Y-307261D1*
X110857D1*
X110768Y-319222D1*
X109983Y-324177D1*
X108433Y-328948D1*
X106155Y-333417D1*
X103207Y-337476D1*
X89873Y-350949D1*
X89909Y-365832D1*
X92066Y-371037D1*
X93381Y-376516D1*
X93823Y-382133D1*
X93381Y-387749D1*
X92066Y-393228D1*
X89909Y-398433D1*
X86966Y-403237D1*
X83306Y-407522D1*
X79022Y-411181D1*
X74218Y-414125D1*
X69013Y-416281D1*
X63534Y-417596D1*
X57917Y-418038D1*
X55541D1*
X55553Y-510289D1*
X6348D1*
X6340Y-539816D1*
X-77282D1*
Y-471942D1*
X-8377D1*
X-8385Y-418058D1*
X-98532Y-418038D1*
X-98521Y-441055D1*
X-102004D1*
X-102239Y-483433D1*
X-98521Y-483417D1*
Y-582681D1*
X-77280Y-582678D1*
X-77282Y-558557D1*
X6340D1*
Y-582663D1*
X35432Y-582678D1*
X30850Y-579827D1*
X26331Y-575967D1*
X22471Y-571448D1*
X19366Y-566381D1*
X17091Y-560890D1*
X15704Y-555111D1*
X15238Y-549186D1*
X15704Y-543262D1*
X17091Y-537483D1*
X19366Y-531992D1*
X22471Y-526925D1*
X26331Y-522405D1*
X30850Y-518546D1*
X35917Y-515440D1*
X41408Y-513166D1*
X47187Y-511779D1*
X53112Y-511312D1*
X59036Y-511779D1*
X64815Y-513166D1*
X70306Y-515440D1*
X75373Y-518546D1*
X79893Y-522405D1*
X83752Y-526925D1*
X86858Y-531992D1*
X89132Y-537483D1*
X90519Y-543262D1*
X90986Y-549186D1*
X90519Y-555111D1*
X89132Y-560890D1*
X86858Y-566381D1*
X83752Y-571448D1*
X79893Y-575967D1*
X75373Y-579827D1*
X70762Y-582677D1*
X153543Y-582678D1*
X148960Y-579827D1*
X144441Y-575967D1*
X140581Y-571448D1*
X137476Y-566381D1*
X135201Y-560890D1*
X133814Y-555111D1*
X133348Y-549186D1*
X133814Y-543262D1*
X135201Y-537483D1*
X137476Y-531992D1*
X140581Y-526925D1*
X144441Y-522405D1*
X148960Y-518546D1*
X154027Y-515440D1*
X159518Y-513166D1*
X165297Y-511779D1*
X171222Y-511312D1*
X177147Y-511779D1*
X182925Y-513166D1*
X188416Y-515440D1*
X193484Y-518546D1*
X198003Y-522405D1*
X201863Y-526925D1*
X204968Y-531992D1*
X207242Y-537483D1*
X208630Y-543262D1*
X209096Y-549186D1*
X208630Y-555111D1*
X207242Y-560890D1*
X204968Y-566381D1*
X201863Y-571448D1*
X198003Y-575967D1*
X193484Y-579827D1*
X188872Y-582677D1*
X217996Y-582678D1*
X217994Y-558557D1*
X301616D1*
Y-582663D1*
X1038770Y-582678D1*
X1037553Y-579810D1*
X1036892Y-577033D1*
X1036666Y-568339D1*
X1036570Y-557142D1*
X731906Y-556574D1*
X727187Y-560251D1*
X724702Y-561655D1*
X722023Y-562655D1*
X701693Y-567231D1*
X693143Y-567410D1*
X674030Y-567325D1*
X665625Y-565594D1*
X652073Y-562420D1*
X649425Y-561353D1*
X640901Y-556404D1*
X378414Y-555857D1*
X375596Y-555405D1*
X372883Y-554518D1*
X370343Y-553218D1*
X368037Y-551536D1*
X366022Y-549514D1*
X364349Y-547202D1*
X363058Y-544656D1*
X362181Y-541940D1*
X361740Y-539120D1*
X362053Y-502108D1*
X362354Y-472942D1*
X361449Y-471675D1*
X325220Y-435447D1*
X234034Y-435449D1*
X233913Y-468708D1*
X233616Y-471210D1*
X235710Y-471942D1*
X301616D1*
Y-539816D1*
X217994D1*
Y-510266D1*
X109726Y-510289D1*
X109824Y-415767D1*
X110609Y-410813D1*
X112159Y-406042D1*
X114436Y-401572D1*
X117385Y-397514D1*
X131616Y-383143D1*
X135728Y-379171D1*
X139786Y-376223D1*
X144256Y-373945D1*
X149027Y-372395D1*
X153981Y-371610D1*
X174206Y-371512D1*
X340973Y-371610D1*
X345927Y-372395D1*
X350698Y-373945D1*
X355168Y-376223D1*
X359226Y-379171D1*
X373597Y-393403D1*
X435142Y-454947D1*
X648256Y-454998D1*
X651290Y-453539D1*
X659394Y-451534D1*
X672982Y-448514D1*
X681532Y-448335D1*
X700675Y-448423D1*
X709050Y-450151D1*
X722602Y-453325D1*
X725254Y-454395D1*
X728973Y-455022D1*
X1036521Y-455113D1*
X1036410Y-329830D1*
X1036853Y-327011D1*
X1037731Y-324295D1*
X1039024Y-321750D1*
X1040698Y-319439D1*
X1042714Y-317418D1*
X1045021Y-315737D1*
X1047562Y-314438D1*
X1050275Y-313553D1*
X1053094Y-313103D1*
X1107687Y-313025D1*
X1150018Y-313009D1*
X1154464Y-308550D1*
X1154462Y-80213D1*
X1151826Y-75948D1*
X1150025Y-71599D1*
X1148926Y-67021D1*
X1148556Y-62328D1*
X1148926Y-57635D1*
X1150025Y-53058D1*
X1151826Y-48708D1*
X1154463Y-44471D1*
X1154462Y-31716D1*
X1152414Y-28279D1*
X1150613Y-23929D1*
X1149514Y-19352D1*
X1149144Y-14659D1*
X1149514Y-9966D1*
X1150613Y-5388D1*
X1152414Y-1039D1*
X1154874Y2975D1*
X1157931Y6554D1*
X1161511Y9612D1*
X1165525Y12071D1*
X1169874Y13873D1*
X1174451Y14972D1*
X1179144Y15341D1*
X1183837Y14972D1*
X1186192Y14500D1*
X1186100Y29920D1*
X1186584Y32733D1*
X1187502Y35436D1*
X1188832Y37961D1*
X1190540Y40248D1*
X1192585Y42239D1*
X1194921Y43889D1*
X1194762Y45202D1*
X1193108Y47972D1*
X1191058Y57903D1*
X1190945Y64961D1*
X1191018Y138721D1*
X1192437Y147063D1*
X1195588Y153287D1*
X1197063Y155770D1*
X1203512Y161966D1*
X1209755Y165079D1*
X1211988Y166078D1*
X1387794Y218820D1*
X1387796Y354060D1*
X1380511Y350517D1*
X1375426Y348641D1*
X1370209Y347170D1*
X1364893Y346112D1*
X1359510Y345475D1*
X1354094Y345262D1*
X1348679Y345475D1*
X1343296Y346112D1*
X1337980Y347170D1*
X1332763Y348641D1*
X1327678Y350517D1*
X1322756Y352786D1*
X1318027Y355435D1*
X1313520Y358446D1*
X1309264Y361801D1*
X1305284Y365481D1*
X1301605Y369461D1*
X1298249Y373717D1*
X1295238Y378224D1*
X1292589Y382953D1*
X1290320Y387875D1*
X1288444Y392960D1*
X1286973Y398177D1*
X1285915Y403493D1*
X1285278Y408875D1*
X1285066Y414291D1*
X1285278Y419707D1*
X1285915Y425090D1*
X1286973Y430406D1*
X1288444Y435622D1*
X1290320Y440708D1*
X1292589Y445630D1*
X1295238Y450359D1*
X1298249Y454865D1*
X1301605Y459122D1*
X1305284Y463102D1*
X1309264Y466781D1*
X1313520Y470137D1*
X1318027Y473148D1*
X1322756Y475797D1*
X1327678Y478066D1*
X1332763Y479942D1*
X1335759Y480787D1*
X1306182Y501850D1*
X1281232Y533947D1*
X1278443Y540364D1*
X1265137Y572417D1*
X1264044Y582700D1*
X441716Y582677D1*
X442494Y577770D1*
Y573062D1*
X441758Y568413D1*
X440303Y563936D1*
X438166Y559741D1*
X436008Y556706D1*
X643932Y556155D1*
X650051Y560797D1*
X652611Y562059D1*
X655336Y562906D1*
X674684Y567231D1*
X683234Y567410D1*
X702377Y567322D1*
X710752Y565594D1*
X724304Y562420D1*
X726951Y561353D1*
X729403Y559882D1*
X734406Y555915D1*
X1056920Y555002D1*
X1059738Y554548D1*
X1062450Y553659D1*
X1064990Y552356D1*
X1067294Y550672D1*
X1069307Y548649D1*
X1070979Y546335D1*
X1072268Y543789D1*
X1073143Y541072D1*
X1073628Y537328D1*
X1075336Y470261D1*
X1074964Y467432D1*
X1074154Y464695D1*
X1072925Y462119D1*
X1071309Y459766D1*
X1069344Y457696D1*
X1067080Y455958D1*
X1064572Y454596D1*
X1061882Y453642D1*
X1059075Y453122D1*
X1051151Y453060D1*
X738165Y455044D1*
X723730Y453092D1*
X726404Y454090D1*
X727679Y454747D1*
X1041022Y-1181D2*
X1040690Y-15349D1*
X1039789Y-29493D1*
X1038321Y-43589D1*
X1036288Y-57615D1*
X1033693Y-71548D1*
X1030541Y-85365D1*
X1026837Y-99045D1*
X1022586Y-112564D1*
X1017796Y-125903D1*
X1012474Y-139038D1*
X1006629Y-151948D1*
X1000270Y-164614D1*
X993408Y-177014D1*
X986053Y-189128D1*
X978217Y-200938D1*
X969914Y-212423D1*
X961156Y-223565D1*
X951958Y-234347D1*
X942334Y-244750D1*
X932300Y-254759D1*
X921872Y-264357D1*
X911067Y-273528D1*
X899903Y-282258D1*
X888397Y-290532D1*
X876568Y-298338D1*
X864435Y-305662D1*
X852018Y-312494D1*
X839337Y-318821D1*
X826411Y-324634D1*
X813263Y-329922D1*
X799913Y-334679D1*
X786382Y-338896D1*
X772693Y-342566D1*
X758868Y-345683D1*
X744929Y-348243D1*
X730898Y-350240D1*
X716798Y-351673D1*
X702653Y-352538D1*
X688483Y-352835D1*
X674314Y-352562D1*
X660166Y-351720D1*
X646064Y-350311D1*
X632030Y-348337D1*
X618087Y-345800D1*
X604256Y-342706D1*
X590561Y-339059D1*
X577024Y-334865D1*
X563666Y-330131D1*
X550509Y-324864D1*
X537574Y-319073D1*
X524882Y-312767D1*
X512453Y-305956D1*
X500308Y-298652D1*
X488466Y-290866D1*
X476946Y-282611D1*
X465767Y-273899D1*
X454947Y-264746D1*
X444504Y-255166D1*
X434453Y-245174D1*
X424812Y-234787D1*
X415595Y-224020D1*
X406819Y-212892D1*
X398496Y-201421D1*
X390641Y-189625D1*
X383266Y-177523D1*
X376383Y-165134D1*
X370003Y-152479D1*
X364136Y-139578D1*
X358792Y-126452D1*
X353980Y-113122D1*
X349707Y-99609D1*
X345980Y-85936D1*
X342805Y-72124D1*
X340187Y-58196D1*
X338130Y-44173D1*
X336639Y-30080D1*
X335714Y-15938D1*
X335359Y-1770D1*
X335572Y12401D1*
X336355Y26552D1*
X337705Y40659D1*
X339620Y54702D1*
X342098Y68656D1*
X345135Y82499D1*
X348724Y96209D1*
X352862Y109764D1*
X357540Y123141D1*
X362752Y136321D1*
X368489Y149280D1*
X374742Y161998D1*
X381501Y174455D1*
X388754Y186631D1*
X396490Y198505D1*
X404697Y210059D1*
X413362Y221274D1*
X422470Y232133D1*
X432006Y242616D1*
X441956Y252709D1*
X452303Y262393D1*
X463031Y271654D1*
X474122Y280477D1*
X485558Y288848D1*
X497321Y296752D1*
X509392Y304178D1*
X521752Y311113D1*
X534380Y317546D1*
X547257Y323466D1*
X560360Y328865D1*
X573670Y333733D1*
X587165Y338063D1*
X600823Y341847D1*
X614621Y345080D1*
X628539Y347756D1*
X642552Y349871D1*
X656639Y351421D1*
X670778Y352405D1*
X684944Y352820D1*
X699115Y352665D1*
X713269Y351942D1*
X727382Y350651D1*
X741432Y348794D1*
X755397Y346375D1*
X769252Y343396D1*
X782977Y339864D1*
X796549Y335783D1*
X809947Y331161D1*
X823148Y326004D1*
X836131Y320321D1*
X848875Y314121D1*
X861360Y307415D1*
X873566Y300213D1*
X885472Y292526D1*
X897061Y284367D1*
X908312Y275750D1*
X919208Y266688D1*
X929732Y257195D1*
X939866Y247288D1*
X949593Y236981D1*
X958899Y226292D1*
X967769Y215238D1*
X976187Y203837D1*
X984140Y192107D1*
X991616Y180067D1*
X998603Y167736D1*
X1005089Y155135D1*
X1011063Y142284D1*
X1016516Y129203D1*
X1021440Y115913D1*
X1025826Y102437D1*
X1029668Y88795D1*
X1032958Y75010D1*
X1035692Y61104D1*
X1037866Y47099D1*
X1039475Y33019D1*
X1040518Y18885D1*
X1040992Y4721D1*
X1041022Y-1181D1*
X-1106772Y352441D2*
X-989685D1*
Y245197D1*
X-1112677D1*
Y352441D1*
X-1106772D1*
Y-261732D2*
X-989685D1*
Y-368976D1*
X-1112677D1*
Y-261732D1*
X-1106772D1*
X-671777Y152593D2*
X-732950Y152872D1*
X-736404Y153635D1*
X-739645Y155053D1*
X-742551Y157071D1*
X-745011Y159613D1*
X-746933Y162584D1*
X-748243Y165870D1*
X-748892Y169347D1*
X-748934Y181606D1*
X-748732Y200892D1*
X-747926Y204337D1*
X-746469Y207560D1*
X-744415Y210441D1*
X-741842Y212869D1*
X-738849Y214754D1*
X-735546Y216023D1*
X-732061Y216629D1*
X-704672Y216615D1*
X-669247Y216372D1*
X-665803Y215567D1*
X-662579Y214109D1*
X-659699Y212056D1*
X-657270Y209483D1*
X-655386Y206489D1*
X-654116Y203187D1*
X-653510Y199702D1*
X-653525Y172312D1*
X-653688Y168381D1*
X-654494Y164936D1*
X-655951Y161713D1*
X-658005Y158832D1*
X-660577Y156404D1*
X-663571Y154519D1*
X-666874Y153250D1*
X-670359Y152644D1*
X-671543Y152594D1*
X-630774Y-373675D2*
X-547546D1*
Y-446273D1*
X-631955D1*
Y-373675D1*
X-630774D1*
X-594092Y570953D2*
D10*
Y531134D1*
X-631943D2*
X-556241D1*
X-798354Y385720D2*
Y345900D1*
X-836205D2*
X-798354D1*
X-670408Y88448D2*
Y50597D1*
X-630589D1*
X-141635Y-176418D2*
Y-307238D1*
X-210982Y-241828D2*
X-72288D1*
X-371785Y-229412D2*
Y-324799D1*
X-415541Y-277105D2*
X-371785D1*
X-1072888Y-533421D2*
Y-573241D1*
X-1110739Y-533421D2*
X-1072888D1*
X-1152707Y-533627D2*
Y-573447D1*
Y-533627D2*
X-1114856D1*
X-1000828Y-533598D2*
Y-573418D1*
X-864114Y-534042D2*
Y-573862D1*
Y-534042D2*
X-826263D1*
X-1222837Y-534219D2*
Y-574039D1*
X-1260688Y-534219D2*
X-1222837D1*
X-932310Y-534513D2*
Y-574333D1*
X-404155Y-428383D2*
Y-468202D1*
X-442006D2*
X-366304D1*
X363280Y478484D2*
Y445513D1*
X-654951Y-276941D2*
Y-316760D1*
X-692802Y-276941D2*
X-617100D1*
X-732818Y-277647D2*
Y-317467D1*
X-770668Y-277647D2*
X-694967D1*
X-923247Y480664D2*
Y434939D1*
X-963066Y480664D2*
X-923247D1*
X688189Y352812D2*
Y-352812D1*
X335377Y0D2*
X1041001D1*
X-994544Y-96850D2*
X-951772D1*
X-701210Y216622D2*
Y152651D1*
X-748949Y184636D2*
X-653471D1*
X-589751Y-373698D2*
Y-446250D1*
X-631932Y-409974D2*
X-547569D1*
D24*
X-594092Y464205D3*
Y531134D3*
X-798354Y278971D3*
Y345900D3*
D25*
X-737337Y50597D3*
X-670408D3*
D26*
X110346Y-241828D3*
X-141635D3*
D27*
X-371785Y-277105D3*
X-296982D3*
D28*
X-686213Y-533482D3*
Y-458678D3*
D24*
X-1072888Y-533421D3*
Y-466492D3*
X-1152707Y-533627D3*
Y-466698D3*
X-1000828Y-533598D3*
Y-466669D3*
X-864114Y-534042D3*
Y-467113D3*
X-1222837Y-534219D3*
Y-467290D3*
X-932310Y-534513D3*
Y-467584D3*
X-404155Y-535131D3*
Y-468202D3*
D101*
X214854Y478337D3*
X214806Y528339D3*
X214756Y578339D3*
X363280Y478484D3*
X363230Y528483D3*
X363181Y578484D3*
D29*
X-215135Y-383496D3*
Y-540976D3*
D24*
X-671949Y465636D3*
Y532566D3*
D25*
X-664227Y358416D3*
X-597298D3*
D24*
X-654951Y-276941D3*
Y-210012D3*
X-732818Y-277647D3*
Y-210718D3*
D30*
X-182051Y-88871D3*
X-156461D3*
X-130870D3*
X-105280D3*
X-79689D3*
X-54098D3*
X-28508D3*
X-2917D3*
X22673D3*
X-207642D3*
X-233232D3*
X-258823D3*
X-284413D3*
X-310004D3*
X-335594D3*
X-361185D3*
X-386776D3*
D31*
X-402524Y-41627D3*
Y-16037D3*
Y9554D3*
Y35144D3*
Y60735D3*
Y86325D3*
Y111916D3*
Y137507D3*
Y163097D3*
Y188688D3*
Y214278D3*
Y239869D3*
Y265459D3*
Y291050D3*
Y316640D3*
Y342231D3*
Y367822D3*
X38421Y-41627D3*
Y-16037D3*
Y9554D3*
Y35144D3*
Y60735D3*
Y86325D3*
Y111916D3*
Y137507D3*
Y163097D3*
Y188688D3*
Y214278D3*
Y239869D3*
Y265459D3*
Y291050D3*
Y316640D3*
Y342231D3*
Y367822D3*
X-28508Y316640D3*
Y291050D3*
Y265459D3*
Y239869D3*
D30*
X-2917Y363885D3*
X-28508D3*
X-54098D3*
X-79689D3*
X-105280D3*
D32*
X-121028Y117822D3*
X-231264D3*
Y230026D3*
X-121028D3*
D33*
X-944900Y545625D3*
X-771672D3*
D34*
X-858286Y480664D3*
D35*
X-923247D3*
X-793325D3*
D104*
X687337Y-507873D3*
X689039Y507873D3*
D36*
X688189Y0D3*
D37*
X-951772Y21260D3*
Y1575D3*
Y-18110D3*
Y-37795D3*
Y-57480D3*
Y-77165D3*
Y-96850D3*
Y-116535D3*
Y-136220D3*
Y-155906D3*
Y-175591D3*
Y-195276D3*
Y-214961D3*
Y-234646D3*
Y40945D3*
Y60630D3*
Y80315D3*
Y100000D3*
Y119685D3*
Y139370D3*
Y159055D3*
Y178740D3*
Y198425D3*
Y218110D3*
D38*
X-1051181Y298819D3*
Y-315354D3*
D107*
X-700997Y269282D3*
X-701210Y184636D3*
X-521864Y268836D3*
X-522076Y184190D3*
D39*
X-827488Y-272825D3*
X-801740Y-202353D3*
X-853236D3*
D41*
X-782633Y-538912D3*
Y-409957D3*
X-589751Y-409974D3*
Y-538929D3*
X-486176Y-410297D3*
Y-539252D3*
D42*
X-35471Y-592493D3*
Y-505879D3*
D43*
X23584Y-467493D3*
X141694D3*
X200749D3*
D42*
X259804Y-505879D3*
Y-592493D3*
M02*
