G04 DipTrace 3.2.0.1*
G04 TopMask.gbr*
%MOIN*%
G04 #@! TF.FileFunction,Soldermask,Top*
G04 #@! TF.Part,Single*
%AMOUTLINE1*
4,1,4,
0.033483,-0.018668,
0.033446,0.018735,
-0.033483,0.018668,
-0.033446,-0.018735,
0.033483,-0.018668,
0*%
%AMOUTLINE4*
4,1,16,
-0.012179,0.045296,
-0.031431,0.040935,
-0.047241,0.028371,
-0.056033,0.010191,
-0.056067,-0.010003,
-0.047336,-0.028213,
-0.031568,-0.040831,
-0.012331,-0.045255,
0.012179,-0.045296,
0.031431,-0.040935,
0.047241,-0.028371,
0.056033,-0.010191,
0.056067,0.010003,
0.047336,0.028213,
0.031568,0.040831,
0.012331,0.045255,
-0.012179,0.045296,
0*%
%AMOUTLINE7*
4,1,4,
-0.033509,-0.017633,
0.033419,-0.017801,
0.033509,0.017633,
-0.033419,0.017801,
-0.033509,-0.017633,
0*%
%ADD51C,0.059055*%
%ADD52C,0.03937*%
%ADD62R,0.035433X0.057087*%
%ADD64R,0.055118X0.03937*%
%ADD66R,0.055906X0.044094*%
%ADD68R,0.032362X0.033386*%
%ADD70R,0.094488X0.07874*%
%ADD72R,0.057087X0.019685*%
%ADD74C,0.677165*%
%ADD76R,0.051181X0.062992*%
%ADD78R,0.066929X0.062992*%
%ADD79R,0.051181X0.047244*%
%ADD80R,0.055118X0.055118*%
%ADD82R,0.047244X0.066929*%
%ADD84R,0.03937X0.021654*%
%ADD86R,0.021654X0.03937*%
%ADD88R,0.204724X0.086614*%
%ADD90R,0.066929X0.059055*%
%ADD92R,0.059055X0.066929*%
%ADD94R,0.110236X0.102362*%
%ADD97R,0.047244X0.051181*%
%ADD102OUTLINE1*%
%ADD105OUTLINE4*%
%ADD108OUTLINE7*%
%FSLAX26Y26*%
G04*
G70*
G90*
G75*
G01*
G04 TopMask*
%LPD*%
D97*
X-594092Y464205D3*
Y531134D3*
X-798354Y278971D3*
Y345900D3*
D79*
X-737337Y50597D3*
X-670408D3*
D94*
X110346Y-241828D3*
X-141635D3*
D92*
X-371785Y-277105D3*
X-296982D3*
D90*
X-686213Y-533482D3*
Y-458678D3*
D97*
X-1072888Y-533421D3*
Y-466492D3*
X-1152707Y-533627D3*
Y-466698D3*
X-1000828Y-533598D3*
Y-466669D3*
X-864114Y-534042D3*
Y-467113D3*
X-1222837Y-534219D3*
Y-467290D3*
X-932310Y-534513D3*
Y-467584D3*
X-404155Y-535131D3*
Y-468202D3*
D51*
X-1354094Y414291D3*
X1354094D3*
X-1354094Y-414291D3*
X1354094D3*
D102*
X214854Y478337D3*
X214806Y528339D3*
X214756Y578339D3*
X363280Y478484D3*
X363230Y528483D3*
X363181Y578484D3*
D88*
X-215135Y-383496D3*
Y-540976D3*
D97*
X-671949Y465636D3*
Y532566D3*
D79*
X-664227Y358416D3*
X-597298D3*
D97*
X-654951Y-276941D3*
Y-210012D3*
X-732818Y-277647D3*
Y-210718D3*
D86*
X-182051Y-88871D3*
X-156461D3*
X-130870D3*
X-105280D3*
X-79689D3*
X-54098D3*
X-28508D3*
X-2917D3*
X22673D3*
X-207642D3*
X-233232D3*
X-258823D3*
X-284413D3*
X-310004D3*
X-335594D3*
X-361185D3*
X-386776D3*
D84*
X-402524Y-41627D3*
Y-16037D3*
Y9554D3*
Y35144D3*
Y60735D3*
Y86325D3*
Y111916D3*
Y137507D3*
Y163097D3*
Y188688D3*
Y214278D3*
Y239869D3*
Y265459D3*
Y291050D3*
Y316640D3*
Y342231D3*
Y367822D3*
X38421Y-41627D3*
Y-16037D3*
Y9554D3*
Y35144D3*
Y60735D3*
Y86325D3*
Y111916D3*
Y137507D3*
Y163097D3*
Y188688D3*
Y214278D3*
Y239869D3*
Y265459D3*
Y291050D3*
Y316640D3*
Y342231D3*
Y367822D3*
X-28508Y316640D3*
Y291050D3*
Y265459D3*
Y239869D3*
D86*
X-2917Y363885D3*
X-28508D3*
X-54098D3*
X-79689D3*
X-105280D3*
D82*
X-121028Y117822D3*
X-231264D3*
Y230026D3*
X-121028D3*
D80*
X-944900Y545625D3*
X-771672D3*
D78*
X-858286Y480664D3*
D76*
X-923247D3*
X-793325D3*
D105*
X687337Y-507873D3*
X689039Y507873D3*
D74*
X688189Y0D3*
D72*
X-951772Y21260D3*
Y1575D3*
Y-18110D3*
Y-37795D3*
Y-57480D3*
Y-77165D3*
Y-96850D3*
Y-116535D3*
Y-136220D3*
Y-155906D3*
Y-175591D3*
Y-195276D3*
Y-214961D3*
Y-234646D3*
Y40945D3*
Y60630D3*
Y80315D3*
Y100000D3*
Y119685D3*
Y139370D3*
Y159055D3*
Y178740D3*
Y198425D3*
Y218110D3*
D70*
X-1051181Y298819D3*
Y-315354D3*
D108*
X-700997Y269282D3*
X-701210Y184636D3*
X-521864Y268836D3*
X-522076Y184190D3*
D68*
X-827488Y-272825D3*
X-801740Y-202353D3*
X-853236D3*
D66*
X-782633Y-538912D3*
Y-409957D3*
X-589751Y-409974D3*
Y-538929D3*
X-486176Y-410297D3*
Y-539252D3*
D64*
X-35471Y-592493D3*
Y-505879D3*
D62*
X23584Y-467493D3*
X141694D3*
X200749D3*
D64*
X259804Y-505879D3*
Y-592493D3*
D52*
X53112Y-549186D3*
X171222D3*
M02*
