G04 DipTrace 3.2.0.1*
G04 TopPaste.gbr*
%MOIN*%
G04 #@! TF.FileFunction,Paste,Top*
G04 #@! TF.Part,Single*
%AMOUTLINE2*
4,1,4,
0.025601,-0.010802,
0.02558,0.010853,
-0.025601,0.010802,
-0.02558,-0.010853,
0.025601,-0.010802,
0*%
%AMOUTLINE8*
4,1,4,
-0.025615,-0.009779,
0.025565,-0.009907,
0.025615,0.009779,
-0.025565,0.009907,
-0.025615,-0.009779,
0*%
%ADD63R,0.019685X0.041339*%
%ADD65R,0.03937X0.023622*%
%ADD67R,0.040157X0.028346*%
%ADD69R,0.016614X0.017638*%
%ADD71R,0.07874X0.062992*%
%ADD73R,0.041339X0.003937*%
%ADD75C,0.661417*%
%ADD77R,0.035433X0.047244*%
%ADD79R,0.051181X0.047244*%
%ADD83R,0.031496X0.051181*%
%ADD85R,0.023622X0.005906*%
%ADD87R,0.005906X0.023622*%
%ADD89R,0.188976X0.070866*%
%ADD91R,0.051181X0.043307*%
%ADD93R,0.043307X0.051181*%
%ADD95R,0.094488X0.086614*%
%ADD96R,0.035433X0.031496*%
%ADD98R,0.031496X0.035433*%
%ADD103OUTLINE2*%
%ADD109OUTLINE8*%
%FSLAX26Y26*%
G04*
G70*
G90*
G75*
G01*
G04 TopPaste*
%LPD*%
D98*
X-594092Y464205D3*
Y531134D3*
X-798354Y278971D3*
Y345900D3*
D96*
X-737337Y50597D3*
X-670408D3*
D95*
X110346Y-241828D3*
X-141635D3*
D93*
X-371785Y-277105D3*
X-296982D3*
D91*
X-686213Y-533482D3*
Y-458678D3*
D98*
X-1072888Y-533421D3*
Y-466492D3*
X-1152707Y-533627D3*
Y-466698D3*
X-1000828Y-533598D3*
Y-466669D3*
X-864114Y-534042D3*
Y-467113D3*
X-1222837Y-534219D3*
Y-467290D3*
X-932310Y-534513D3*
Y-467584D3*
X-404155Y-535131D3*
Y-468202D3*
D103*
X214854Y478337D3*
X214806Y528339D3*
X214756Y578339D3*
X363280Y478484D3*
X363230Y528483D3*
X363181Y578484D3*
D89*
X-215135Y-383496D3*
Y-540976D3*
D98*
X-671949Y465636D3*
Y532566D3*
D96*
X-664227Y358416D3*
X-597298D3*
D98*
X-654951Y-276941D3*
Y-210012D3*
X-732818Y-277647D3*
Y-210718D3*
D87*
X-182051Y-88871D3*
X-156461D3*
X-130870D3*
X-105280D3*
X-79689D3*
X-54098D3*
X-28508D3*
X-2917D3*
X22673D3*
X-207642D3*
X-233232D3*
X-258823D3*
X-284413D3*
X-310004D3*
X-335594D3*
X-361185D3*
X-386776D3*
D85*
X-402524Y-41627D3*
Y-16037D3*
Y9554D3*
Y35144D3*
Y60735D3*
Y86325D3*
Y111916D3*
Y137507D3*
Y163097D3*
Y188688D3*
Y214278D3*
Y239869D3*
Y265459D3*
Y291050D3*
Y316640D3*
Y342231D3*
Y367822D3*
X38421Y-41627D3*
Y-16037D3*
Y9554D3*
Y35144D3*
Y60735D3*
Y86325D3*
Y111916D3*
Y137507D3*
Y163097D3*
Y188688D3*
Y214278D3*
Y239869D3*
Y265459D3*
Y291050D3*
Y316640D3*
Y342231D3*
Y367822D3*
X-28508Y316640D3*
Y291050D3*
Y265459D3*
Y239869D3*
D87*
X-2917Y363885D3*
X-28508D3*
X-54098D3*
X-79689D3*
X-105280D3*
D83*
X-121028Y117822D3*
X-231264D3*
Y230026D3*
X-121028D3*
D79*
X-858286Y480664D3*
D77*
X-923247D3*
X-793325D3*
D75*
X688189Y0D3*
D73*
X-951772Y21260D3*
Y1575D3*
Y-18110D3*
Y-37795D3*
Y-57480D3*
Y-77165D3*
Y-96850D3*
Y-116535D3*
Y-136220D3*
Y-155906D3*
Y-175591D3*
Y-195276D3*
Y-214961D3*
Y-234646D3*
Y40945D3*
Y60630D3*
Y80315D3*
Y100000D3*
Y119685D3*
Y139370D3*
Y159055D3*
Y178740D3*
Y198425D3*
Y218110D3*
D71*
X-1051181Y298819D3*
Y-315354D3*
D109*
X-700997Y269282D3*
X-701210Y184636D3*
X-521864Y268836D3*
X-522076Y184190D3*
D69*
X-827488Y-272825D3*
X-801740Y-202353D3*
X-853236D3*
D67*
X-782633Y-538912D3*
Y-409957D3*
X-589751Y-409974D3*
Y-538929D3*
X-486176Y-410297D3*
Y-539252D3*
D65*
X-35471Y-592493D3*
Y-505879D3*
D63*
X23584Y-467493D3*
X141694D3*
X200749D3*
D65*
X259804Y-505879D3*
Y-592493D3*
M02*
